<svg xmlns="http://www.w3.org/2000/svg" viewBox="0 0 198.82 36.28"><defs><style>.cls-1{fill:#fff;}</style></defs><title>bcemn</title><g id="Layer_2" data-name="Layer 2"><g id="Layer_1-2" data-name="Layer 1"><g id="Symbol_6_2" data-name="Symbol 6 2"><g id="Group_4" data-name="Group 4"><g id="Group_3" data-name="Group 3"><path id="Path_1" data-name="Path 1" class="cls-1" d="M51.34,5.72h4.75a2.69,2.69,0,0,1,3,2.72,2.46,2.46,0,0,1-1.88,2.45,2.71,2.71,0,0,1,2.09,2.65,2.74,2.74,0,0,1-3.07,2.86H51.35V5.72Zm4.54,4.68a1.75,1.75,0,0,0,0-3.49H52.67v3.42h3.21ZM56,15.28a1.78,1.78,0,0,0,2-1.81,1.82,1.82,0,0,0-1.81-1.83H52.67v3.7H56Z"/><path id="Path_2" data-name="Path 2" class="cls-1" d="M60.83,11.1A5.36,5.36,0,0,1,66,5.58h.32a4.79,4.79,0,0,1,4,2.1l-1.12.62a3.62,3.62,0,0,0-2.92-1.53,4.1,4.1,0,0,0-4.13,4.06,2.44,2.44,0,0,0,0,.27,4.13,4.13,0,0,0,3.93,4.32h.19a3.62,3.62,0,0,0,2.92-1.53l1.12.62a4.87,4.87,0,0,1-4,2.1,5.36,5.36,0,0,1-5.51-5.19Z"/><path id="Path_3" data-name="Path 3" class="cls-1" d="M76,5.72h7V6.91H77.37v3.42H83v1.18H77.37v3.7H83V16.4H76Z"/><path id="Path_4" data-name="Path 4" class="cls-1" d="M94,7.61,90.41,16.4h-.56L86.23,7.61V16.4H84.9V5.72h1.88l3.35,8.09,3.35-8.09h1.88V16.47H94Z"/><path id="Path_5" data-name="Path 5" class="cls-1" d="M97.74,5.72h7V6.91H99.13v3.42h5.58v1.18H99.13v3.7h5.65V16.4h-7Z"/><path id="Path_6" data-name="Path 6" class="cls-1" d="M110.22,12.21h-2.16v4.26h-1.33V5.72h4.33a3.11,3.11,0,0,1,3.34,2.87c0,.11,0,.23,0,.34a3,3,0,0,1-2.79,3.14l2.86,4.4h-1.61Zm.63-5.3h-2.79V11h2.79a2.06,2.06,0,0,0,.21-4.12Z"/><path id="Path_7" data-name="Path 7" class="cls-1" d="M121.39,5.58a5.2,5.2,0,0,1,4.18,2l-1,.63a4.06,4.06,0,0,0-7.18,2.86,4.2,4.2,0,0,0,4,4.39h.13a4,4,0,0,0,2.86-1.18V12.14h-3.69V11h5v3.83a5.48,5.48,0,0,1-4.19,1.82,5.37,5.37,0,0,1-5.51-5.23V11a5.19,5.19,0,0,1,5-5.44h.5Z"/><path id="Path_8" data-name="Path 8" class="cls-1" d="M127.59,5.72h7V6.91H129v3.42h5.58v1.18H129v3.7h5.65V16.4h-7Z"/><path id="Path_9" data-name="Path 9" class="cls-1" d="M137.92,7.89V16.4h-1.33V5.72H138l6.14,8.37V5.72h1.32V16.46H144.2Z"/><path id="Path_10" data-name="Path 10" class="cls-1" d="M147.34,11.1a5.35,5.35,0,0,1,5.19-5.52h.32a4.8,4.8,0,0,1,4.05,2.1l-1.12.62a3.62,3.62,0,0,0-2.93-1.53,4.08,4.08,0,0,0-4.12,4.06v.27a4.15,4.15,0,0,0,3.94,4.32h.18a3.62,3.62,0,0,0,2.93-1.53l1.12.62a4.89,4.89,0,0,1-4.05,2.1,5.35,5.35,0,0,1-5.51-5.19A1.71,1.71,0,0,1,147.34,11.1Z"/><path id="Path_11" data-name="Path 11" class="cls-1" d="M161.36,11.93,157.1,5.72h1.54l3.35,5,3.35-5h1.53l-4.18,6.21v4.54h-1.33Z"/><path id="Path_12" data-name="Path 12" class="cls-1" d="M60.13,21.7l-3.62,8.79H56L52.32,21.7v8.79H51V19.74h1.88l3.35,8.1,3.35-8.1h1.88V30.49H60.13Z"/><path id="Path_13" data-name="Path 13" class="cls-1" d="M63.83,19.74h7V21H65.23v3.42h5.58V25.6H65.23v3.7h5.65v1.19h-7Z"/><path id="Path_14" data-name="Path 14" class="cls-1" d="M72.76,19.74h3.63a5.21,5.21,0,0,1,5.51,5.38,5.2,5.2,0,0,1-5.51,5.37H72.76Zm3.7,9.56a4,4,0,0,0,4.12-3.82v-.36a4,4,0,0,0-3.67-4.19H74.16v8.3h2.3Z"/><path id="Path_15" data-name="Path 15" class="cls-1" d="M83.85,19.74h1.33V30.49H83.85Z"/><path id="Path_16" data-name="Path 16" class="cls-1" d="M87.13,25.12a5.35,5.35,0,0,1,5.19-5.51h.32a4.75,4.75,0,0,1,4,2.09l-1.12.63a3.6,3.6,0,0,0-2.93-1.54,4.33,4.33,0,0,0,0,8.65,3.62,3.62,0,0,0,2.93-1.53l1.12.63a4.86,4.86,0,0,1-4,2.09,5.23,5.23,0,0,1-5.51-4.94,5.42,5.42,0,0,1,0-.57Z"/><path id="Path_17" data-name="Path 17" class="cls-1" d="M98.22,19.74h1.33V30.49H98.22Z"/><path id="Path_18" data-name="Path 18" class="cls-1" d="M103.25,22v8.51h-1.33V19.74h1.4l6.14,8.38V19.74h1.32V30.49h-1.25Z"/><path id="Path_19" data-name="Path 19" class="cls-1" d="M113.15,19.74h7V21h-5.65v3.42h5.58V25.6h-5.58v3.7h5.65v1.19h-7Z"/><path id="Path_20" data-name="Path 20" class="cls-1" d="M127.39,22v8.51h-1.33V19.74h1.4l6.13,8.38V19.74h1.33V30.49h-1.26Z"/><path id="Path_21" data-name="Path 21" class="cls-1" d="M137.29,19.74h7.05V21h-5.65v3.42h5.58V25.6h-5.58v3.7h5.65v1.19h-7.05Z"/><path id="Path_22" data-name="Path 22" class="cls-1" d="M148.94,21h-3.42V19.82h8.09V21H150.2v9.56h-1.33V21Z"/><path id="Path_23" data-name="Path 23" class="cls-1" d="M161.08,21.84l-2.37,8.65h-1.47l-3.07-10.75h1.47L158,28.67l2.44-8.93h1.12L164,28.67l2.37-8.93h1.47l-3.07,10.75h-1.33Z"/><path id="Path_24" data-name="Path 24" class="cls-1" d="M173.85,19.61a5.22,5.22,0,0,1,5.3,5.51,5.3,5.3,0,1,1-10.6,0A5.18,5.18,0,0,1,173.85,19.61Zm0,1.18c-2.44,0-3.91,1.81-3.91,4.33s1.53,4.32,3.91,4.32,3.9-1.88,3.9-4.32S176.22,20.79,173.85,20.79Z"/><path id="Path_25" data-name="Path 25" class="cls-1" d="M184.52,26.23h-2.16v4.26H181V19.74h4.33a3.12,3.12,0,0,1,3.34,2.87c0,.12,0,.23,0,.34a3,3,0,0,1-2.79,3.14l2.86,4.4h-1.61Zm.7-5.23h-2.79v4.12h2.79a2,2,0,0,0,2.15-1.87.81.81,0,0,0,0-.16A2,2,0,0,0,185.49,21,1.22,1.22,0,0,0,185.22,21Z"/><path id="Path_26" data-name="Path 26" class="cls-1" d="M193.1,25.67l-1,1.19v3.63h-1.39V19.74H192v5.51l4.74-5.51h1.67l-4.46,5.1,4.88,5.65h-1.67Z"/></g></g><g id="Group_6" data-name="Group 6"><g id="Group_5" data-name="Group 5"><path id="Path_27" data-name="Path 27" class="cls-1" d="M19.25,18.63H12.84V12.21h6.41V5.79H1.05a1.08,1.08,0,0,0-1,1V29.72a1.07,1.07,0,0,0,1.05,1.05H3.77v5.51l5.86-5.51h15a1.07,1.07,0,0,0,1-1.05V25.05H19.26Z"/><path id="Path_28" data-name="Path 28" class="cls-1" d="M43.88,0H20.3a1.09,1.09,0,0,0-1.05,1.05V5.72h6.42v6.42h6.42v6.42H25.67V25H35.3l5.51,5.51V25h3.07a1.09,1.09,0,0,0,1-1.05V1.05a1.08,1.08,0,0,0-1-1Z"/></g></g></g></g></g></svg>