<?xml version="1.0" encoding="UTF-8"?>
<svg width="564px" height="123px" viewBox="0 0 564 123" version="1.1" xmlns="http://www.w3.org/2000/svg" xmlns:xlink="http://www.w3.org/1999/xlink">
    <!-- Generator: Sketch 52.4 (67378) - http://www.bohemiancoding.com/sketch -->
    <title>clined_1</title>
    <desc>Created with Sketch.</desc>
    <defs>
        <rect id="path-1" x="0" y="0" width="236" height="123"></rect>
    </defs>
    <g id="Page-1" stroke="none" stroke-width="1" fill="none" fill-rule="evenodd">
        <g id="clined_1">
            <g id="Layer_1-2">
                <mask id="mask-2" fill="white">
                    <use xlink:href="#path-1"></use>
                </mask>
                <g id="Mask" fill-rule="nonzero"></g>
                <g mask="url(#mask-2)" id="Group">
                    <g transform="translate(-1.000000, 0.000000)">
                        <g>
                            <g opacity="0.64" transform="translate(0.000000, 4.000000)" fill="#FFFFFF" fill-rule="nonzero" id="Shape">
                                <path d="M118.66,4.58 C178.765636,4.67115043 228.380794,51.6010785 231.812682,111.608728 C235.24457,171.616377 191.30334,223.896873 131.6,230.84 C127.205106,231.350596 122.784455,231.607688 118.36,231.61 C58.3496374,231.391989 8.87744014,184.500421 5.4478808,124.587741 C2.01832145,64.6750602 45.8165047,12.4444502 105.41,5.38 C109.804894,4.86940386 114.225545,4.61231163 118.65,4.61 L118.66,4.58 Z M118.65,0.61 C69.8721225,0.543246698 26.1245274,30.6175714 8.71693781,76.1835852 C-8.69065179,121.749599 3.86155933,173.332145 40.2593118,205.805048 C76.6570643,238.27795 129.331682,244.88868 172.625034,222.41711 C215.918386,199.94554 240.8279,153.064486 235.22,104.61 C228.345241,45.4054915 178.252226,0.714116816 118.65,0.61 Z"></path>
                            </g>
                            <g opacity="0.36" transform="translate(6.000000, 9.000000)" fill="#FFFFFF" fill-rule="nonzero" id="Shape">
                                <path d="M224.02,99.83 C216.862361,38.2005994 161.099459,-5.9574961 99.470056,1.20011985 C37.8406528,8.3577358 -6.3174635,64.1206212 0.8401295,125.750027 C7.9977225,187.379433 63.7605914,231.53757 125.39,224.38 C186.981709,217.154688 231.10306,161.43823 224.02,99.83 Z M131.78,213.29 L123.71,207.29 L118.2,215 C66.9877548,217.836332 21.5671054,182.371479 11.9,132 L18.39,124.37 L10.21,117.77 C7.77321543,66.371976 43.8243663,21.1347557 94.47,12.04 L101.79,18.67 L108.06,10.54 C159.179766,8.4180382 204.032668,44.3251145 213.15,94.67 L207.67,102.38 L214.67,108.47 C216.744447,159.094473 181.519315,203.639031 131.78,213.29 Z"></path>
                            </g>
                            <polygon id="Path" fill="#E0E0E0" points="25.35 132.99 92.82 101.4 118.94 122.16"></polygon>
                            <polygon id="Path" fill="#FFFFFF" points="25.34 132.88 98.25 148.16 118.92 121.97"></polygon>
                            <polygon id="Path" fill="#E0E0E0" points="212.42 111.15 144.95 142.74 118.82 121.98"></polygon>
                            <polygon id="Path" fill="#FFFFFF" points="212.43 111.26 139.51 95.98 118.84 122.17"></polygon>
                            <polygon id="Path" fill="#C5DC0A" points="129.8 215.6 98.21 148.14 118.97 122.01"></polygon>
                            <polygon id="Path" fill="#E2ED84" points="129.69 215.62 144.97 142.71 118.78 122.03"></polygon>
                            <polygon id="Path" fill="#E0E0E0" points="107.97 28.54 139.55 96.01 118.8 122.13"></polygon>
                            <polygon id="Path" fill="#FFFFFF" points="108.07 28.52 92.79 101.44 118.98 122.11"></polygon>
                            <polygon id="Path" fill="#E0E0E0" points="60.46 195.93 85.84 125.89 118.98 122.09"></polygon>
                            <polygon id="Path" fill="#FFFFFF" points="60.38 195.86 122.74 155.11 118.84 121.97"></polygon>
                            <polygon id="Path" fill="#E0E0E0" points="215.73 0 151.93 118.25 118.78 122.05"></polygon>
                            <polygon id="Path" fill="#FFFFFF" points="215.81 0.06 115.02 89.03 118.93 122.17"></polygon>
                            <polygon id="Path" fill="#E0E0E0" points="192.74 180.49 122.7 155.12 118.9 121.97"></polygon>
                            <polygon id="Path" fill="#FFFFFF" points="192.67 180.57 151.92 118.21 118.79 122.11"></polygon>
                            <polygon id="Path" fill="#E0E0E0" points="45.02 63.65 115.07 89.03 118.86 122.17"></polygon>
                            <polygon id="Path" fill="#FFFFFF" points="45.09 63.57 85.84 125.93 118.98 122.03"></polygon>
                        </g>
                    </g>
                </g>
            </g>
            <g id="LCD" transform="translate(255.000000, 35.000000)" fill="#FFFFFF">
                <path d="M0.19,18.87 C0.19,8.12 8.28,0.73 19.19,0.73 C25.4702365,0.571710158 31.2916214,4.00632724 34.19,9.58 L27.19,12.93 C25.6445513,9.93772522 22.5578061,8.05866909 19.19,8.06 C13.12,8.06 8.7,12.67 8.7,18.87 C8.7,25.07 13.12,29.68 19.19,29.68 C22.5616598,29.6951372 25.6550459,27.8120384 27.19,24.81 L34.19,28.1 C31.2822904,33.6963852 25.4450846,37.1521662 19.14,37.01 C8.28,37.01 0.19,29.55 0.19,18.87 Z" id="Path"></path>
                <polygon id="Path" points="43.87 36.25 43.87 1.48 52.22 1.48 52.22 28.98 67.51 28.98 67.51 36.25"></polygon>
                <polygon id="Path" points="78.26 36.25 78.26 1.48 86.6 1.48 86.6 36.25"></polygon>
                <polygon id="Path" points="123.84 36.25 107.66 14.44 107.66 36.25 99.31 36.25 99.31 1.48 108.31 1.48 124.05 22.48 124.05 1.48 132.39 1.48 132.39 36.25"></polygon>
                <polygon id="Path" points="145.08 36.25 145.08 1.48 153.42 1.48 153.42 36.25"></polygon>
                <path d="M164.17,18.87 C164.17,8.12 172.26,0.73 183.17,0.73 C189.45211,0.564483549 195.277041,4.00119301 198.17,9.58 L191.17,12.93 C189.624551,9.93772522 186.537806,8.05866909 183.17,8.06 C177.1,8.06 172.67,12.67 172.67,18.87 C172.67,25.07 177.1,29.68 183.17,29.68 C186.542953,29.6997956 189.63859,27.8153266 191.17,24.81 L198.17,28.1 C195.273886,33.6833538 189.458482,37.1377041 183.17,37.01 C172.26,37.01 164.17,29.55 164.17,18.87 Z" id="Path"></path>
                <path d="M227.83,1.48 L241.97,36.25 L232.57,36.25 L230.29,30.5 L215.18,30.5 L212.97,36.25 L203.55,36.25 L217.65,1.48 L227.83,1.48 Z M222.77,9.96 L217.59,23.23 L227.89,23.23 L222.77,9.96 Z" id="Shape" fill-rule="nonzero"></path>
                <polygon id="Path" points="250.33 36.25 250.33 1.48 258.68 1.48 258.68 28.98 273.97 28.98 273.97 36.25"></polygon>
                <polygon id="Path" points="2.15 86.83 2.15 52.06 28.38 52.06 28.38 59.38 10.49 59.38 10.49 65.57 27.97 65.57 27.97 72.84 10.49 72.84 10.49 79.61 28.38 79.61 28.38 86.88"></polygon>
                <path d="M35.02,86.83 L35.02,52.06 L49.62,52.06 C61.13,52.06 68.62,58.95 68.62,69.44 C68.62,79.93 61.16,86.83 49.62,86.83 L35.02,86.83 Z M60.12,69.44 C60.12,63.82 56.89,59.33 49.62,59.33 L43.36,59.33 L43.36,79.56 L49.62,79.56 C56.51,79.56 60.12,74.94 60.12,69.44 Z" id="Shape" fill-rule="nonzero"></path>
                <path d="M74.59,73.05 L74.59,52.05 L82.97,52.05 L82.97,72.28 C82.97,77.02 85.82,80.28 90.97,80.28 C96.12,80.28 98.97,77.06 98.97,72.28 L98.97,52.06 L107.38,52.06 L107.38,72.98 C107.38,81.64 102.07,87.59 90.94,87.59 C79.81,87.59 74.59,81.64 74.59,73.05 Z" id="Path"></path>
                <path d="M113.47,69.44 C113.47,58.7 121.56,51.3 132.47,51.3 C138.75086,51.1393053 144.573425,54.5746183 147.47,60.15 L140.52,63.5 C138.974551,60.5077252 135.887806,58.6286691 132.52,58.63 C126.45,58.63 122.02,63.25 122.02,69.44 C122.02,75.63 126.45,80.25 132.52,80.25 C135.885617,80.2532637 138.971817,78.3783975 140.52,75.39 L147.52,78.67 C144.626657,84.2572329 138.81069,87.7157946 132.52,87.59 C121.56,87.59 113.47,80.13 113.47,69.44 Z" id="Path"></path>
                <path d="M172.39,52.06 L186.49,86.83 L177.13,86.83 L174.85,81.07 L159.75,81.07 L157.53,86.83 L148.11,86.83 L162.21,52.06 L172.39,52.06 Z M167.33,60.53 L162.15,73.8 L172.45,73.8 L167.33,60.53 Z" id="Shape" fill-rule="nonzero"></path>
                <polygon id="Path" points="194.39 86.83 194.39 59.38 184.52 59.38 184.52 52.06 212.66 52.06 212.66 59.38 202.73 59.38 202.73 86.88"></polygon>
                <polygon id="Path" points="217.9 86.83 217.9 52.06 226.25 52.06 226.25 86.83"></polygon>
                <path d="M232.25,69.44 C232.25,58.95 239.84,51.3 250.9,51.3 C261.96,51.3 269.62,58.95 269.62,69.44 C269.62,79.93 261.9,87.59 250.9,87.59 C239.9,87.59 232.25,79.87 232.25,69.44 Z M261.08,69.44 C261.08,63.31 257.08,58.63 250.9,58.63 C244.72,58.63 240.72,63.31 240.72,69.44 C240.72,75.57 244.72,80.25 250.9,80.25 C257.08,80.25 261.08,75.51 261.08,69.44 Z" id="Shape" fill-rule="nonzero"></path>
                <polygon id="Path" points="300.15 86.83 283.97 65.02 283.97 86.83 275.63 86.83 275.63 52.06 284.63 52.06 300.37 73.06 300.37 52.06 308.71 52.06 308.71 86.83"></polygon>
            </g>
        </g>
    </g>
</svg>