<svg xmlns="http://www.w3.org/2000/svg" viewBox="0 0 176.92 36.9"><defs><style>.cls-1{fill:#fff;}</style></defs><title>fraserhealth</title><g id="Layer_2" data-name="Layer 2"><g id="Layer_1-2" data-name="Layer 1"><path class="cls-1" d="M50.62,9.48c-1.86-3.94-14-3.53-27.37,1.6S-1.66,25.82.2,29.75c.8,1.7,3,1.46,6.25.72-2.56.43-4.47.15-5.06-1-1.78-3.64,9.3-11.27,20.76-15.67s22.5-4.63,24.47-1.36c.65,1.07.67,2.7-.69,4.84C48,16,52.13,12.7,50.62,9.48Z"/><path class="cls-1" d="M21.8,2.62C16.6-3.32,6.72,1.57,6.67,10a17.17,17.17,0,0,0,2.26,7.55,67.86,67.86,0,0,1,9.58-5.44C15.69,5.75,16.7,1.48,21.8,2.62Z"/><path class="cls-1" d="M29.53,4.16c3.21-1,5.2.07,5.7,2.53A41.59,41.59,0,0,1,42,6C39.68.58,33.42-1,29.53,4.16Z"/><path class="cls-1" d="M20.56,16.31a73.59,73.59,0,0,0-9.64,5c5.4,8.15,14.33,15.63,14.33,15.63a99.15,99.15,0,0,0,7-7.61C27.5,24.82,23,20.28,20.56,16.31Z"/><path class="cls-1" d="M34.94,12.26c-.81,2.81-2.77,6.06-5.48,9.87a59.64,59.64,0,0,0,5.21,4.48c3.7-3.8,7.48-9,8-14.38A24.54,24.54,0,0,0,34.94,12.26Z"/><path class="cls-1" d="M63.51,9.67c-1.32,0-1.73.53-1.73,2.23v2.24h1.8v2.27h-1.8v13.1H59.16V16.41H57.81V14.14h1.35v-3c0-1.64.13-2.11.76-2.77A4.3,4.3,0,0,1,63.29,7.3a7.68,7.68,0,0,1,.88,0V9.76A2.68,2.68,0,0,0,63.51,9.67Z"/><path class="cls-1" d="M71.2,16.79a2.94,2.94,0,0,0-1.23,1,3.94,3.94,0,0,0-.63,2.74v9H66.73V14.14h2.32v2.17c1-1.73,2.21-2.55,3.82-2.55h.34v2.62A4.16,4.16,0,0,0,71.2,16.79Z"/><path class="cls-1" d="M81.34,29.51V27.84c-1,1.48-1.92,2.05-3.21,2.05-2.27,0-3.81-2.23-3.81-5.51s1.67-5.29,4.15-5.29a3.89,3.89,0,0,1,2.59,1v-.44a7.62,7.62,0,0,0-.22-2.33A2.4,2.4,0,0,0,78.35,16a6.64,6.64,0,0,0-2.84.63V14.27a9.87,9.87,0,0,1,3.22-.51,6.2,6.2,0,0,1,3.08.7c1.36.72,1.83,1.82,1.83,4.12V29.51Zm-2.27-8.16c-1.32,0-2,1.08-2,3s.69,3,2,3,2.08-1.1,2.08-3S80.33,21.35,79.07,21.35Z"/><path class="cls-1" d="M89.5,29.89a6.07,6.07,0,0,1-3.12-.82V26.52a4.6,4.6,0,0,0,2.8,1.1A1.73,1.73,0,0,0,91,26a3.86,3.86,0,0,0-.6-1.76c-.28-.44-.78-1.23-1.35-2l-.76-1.1c-1.19-1.73-1.64-2.83-1.64-4,0-2,1.58-3.34,3.85-3.34a6.08,6.08,0,0,1,2.71.66v2.4A4.36,4.36,0,0,0,91,16a1.45,1.45,0,0,0-1.55,1.39c0,.5.23.94.89,1.95l.82,1.23,1,1.48a7.65,7.65,0,0,1,1.64,4.13C93.78,28.35,92,29.89,89.5,29.89Z"/><path class="cls-1" d="M101.12,29.89c-3.34,0-5.13-2.83-5.13-8.13,0-5.1,1.83-8,5-8,3,0,4.88,2.71,4.88,7.28,0,.25,0,.57,0,.88v.13H98.67v.63c0,3.18.88,4.88,2.49,4.88,1.29,0,2-.94,2.14-3h2.61C105.57,27.94,103.8,29.89,101.12,29.89Zm2-10.27c0-2.17-.82-3.53-2.11-3.53S99,17.2,98.73,19.91h4.44Z"/><path class="cls-1" d="M113.38,16.79a2.88,2.88,0,0,0-1.23,1,3.89,3.89,0,0,0-.63,2.74v9H108.9V14.14h2.33v2.17c1-1.73,2.21-2.55,3.82-2.55h.34v2.62A4.16,4.16,0,0,0,113.38,16.79Z"/><path class="cls-1" d="M124.44,29.51V19.18c0-1.07-.41-1.61-1.16-1.61-.92,0-1.36.73-1.36,2.27v9.67H118.3V7.3h3.62v8.2a3.35,3.35,0,0,1,2.93-1.74c2.08,0,3.19,1.51,3.19,4.38V29.51Z"/><path class="cls-1" d="M133.67,22.24v.53c0,2.46.6,3.78,1.67,3.78.79,0,1.33-.66,1.55-2h3.43c-.25,3.34-2.08,5.32-4.94,5.32-3.34,0-5.39-3.05-5.39-8,0-5.14,1.92-8.13,5.16-8.13s5.2,3,5.2,8v.45ZM135.22,17c-1,0-1.42.82-1.48,3h2.93C136.6,17.83,136.19,17,135.22,17Z"/><path class="cls-1" d="M148.73,29.51V27.94a3.41,3.41,0,0,1-3,1.95c-2.3,0-3.85-2.17-3.85-5.48,0-3.12,1.55-5.1,3.91-5.1a3.75,3.75,0,0,1,2.61,1V19.24c0-1.64-.69-2.26-2.42-2.26a6.41,6.41,0,0,0-2.55.5V14.23a12,12,0,0,1,3.31-.47,6.64,6.64,0,0,1,3,.6,3.44,3.44,0,0,1,1.32,1.1,4.67,4.67,0,0,1,.79,3.19V29.51Zm-1.95-7.34c-1,0-1.48.73-1.48,2.15s.5,2,1.54,2,1.54-.69,1.54-2.11S147.88,22.17,146.78,22.17Z"/><path class="cls-1" d="M154.43,29.51V7.3H158V29.51Z"/><path class="cls-1" d="M164.45,16.75V29.51h-3.59V16.75h-1.07V14.14h1.07V10.08l3.59-1.48v5.54h1v2.61Z"/><path class="cls-1" d="M173.33,29.51V19.18c0-1.07-.41-1.61-1.16-1.61-.92,0-1.36.73-1.36,2.27v9.67h-3.62V7.3h3.62v8.2a3.34,3.34,0,0,1,2.93-1.74c2.08,0,3.18,1.51,3.18,4.38V29.51Z"/></g></g></svg>