<svg xmlns="http://www.w3.org/2000/svg" viewBox="0 0 223.78 35.52"><defs><style>.cls-1,.cls-2{fill:#fff;}.cls-2{fill-rule:evenodd;}</style></defs><title>interiorhealth</title><g id="Layer_2" data-name="Layer 2"><g id="content"><path class="cls-1" d="M44.3,7.11c9.58,2.48,16.15,7.55,16.15,13.4,0,8.29-13.18,15-29.45,15C18.55,35.52,7.9,31.58,3.59,26c4.84,4.22,13.68,7,23.77,7,15.29,0,27.69-6.48,27.69-14.48,0-4.66-4.21-8.81-10.75-11.46Z"/><path class="cls-1" d="M16.92,4.36a4.36,4.36,0,1,1,4.36,4.36,4.36,4.36,0,0,1-4.36-4.36Z"/><path class="cls-1" d="M20.9,28s-1.81-5.23-7.84-12.26C8,9.77,0,7.46,0,7.46s7.2.88,11.45,2.82a22.36,22.36,0,0,1,9.45,7.63s4.67-5,8.44-7C33.83,8.43,42,7.46,42,7.46s-9.78,4.8-13.87,9.45C22.3,23.54,20.9,28,20.9,28Z"/><polygon class="cls-1" points="77 7.76 74.6 7.76 74.6 24.46 77 24.46 77 7.76 77 7.76"/><path class="cls-1" d="M82.78,13.46H80.6v11h2.18V16.57c1-1.15,1.79-1.59,2.74-1.59,1.33,0,2.16,1.05,2.16,2.67v6.81h2.18V17.67c0-3-1.67-4.43-3.75-4.43a4.23,4.23,0,0,0-3.28,1.67h0V13.46Z"/><path class="cls-1" d="M95.69,11.19l-4.09,4v.24h1.91v5.81a3.25,3.25,0,0,0,3.58,3.45,6.47,6.47,0,0,0,2.64-.74v-2a4.74,4.74,0,0,1-2.47.81,1.52,1.52,0,0,1-1.57-1.67V15.42h3.48v-2H95.69V11.19Z"/><path class="cls-2" d="M110.72,21.27a6.94,6.94,0,0,1-3.84,1.33c-2.11,0-3.36-1.13-3.7-3.31h7.74c0-4.06-1.86-6-4.78-6S101,15.5,101,18.83c0,3,1.91,5.85,5.34,5.85a7.15,7.15,0,0,0,4.38-1.3V21.27Zm-7.49-3.42a2.85,2.85,0,0,1,3-2.72,2.52,2.52,0,0,1,2.57,2.72Z"/><path class="cls-1" d="M113.65,13.46v11h2.18V18.7c0-1.88,1.18-3.38,2.67-3.38a3.61,3.61,0,0,1,2,1.08l1.15-1.88a3.84,3.84,0,0,0-2.62-1.28c-1,0-2.09.81-3.19,2.74h0V13.46Z"/><path class="cls-2" d="M125.68,13.46H123.5v11h2.18v-11Zm.22-3.33a1.3,1.3,0,1,0-1.3,1.3,1.31,1.31,0,0,0,1.3-1.3Z"/><path class="cls-2" d="M134.2,13.24a5.62,5.62,0,0,0-5.8,5.61,5.88,5.88,0,0,0,11.75,0c0-3.26-2.5-5.61-6-5.61Zm0,2a3.57,3.57,0,0,1,3.74,3.67,3.52,3.52,0,0,1-3.74,3.85c-2.11,0-3.55-1.54-3.55-3.87a3.48,3.48,0,0,1,3.55-3.65Z"/><path class="cls-1" d="M143,13.46v11h2.18V18.7c0-1.88,1.17-3.38,2.66-3.38a3.58,3.58,0,0,1,2,1.08L151,14.52a3.84,3.84,0,0,0-2.62-1.28c-1,0-2.08.81-3.19,2.74h0V13.46Z"/><polygon class="cls-1" points="174.26 7.76 171.86 7.76 171.86 15.03 162.51 15.03 162.51 7.76 160.11 7.76 160.11 24.46 162.51 24.46 162.51 17.18 171.86 17.18 171.86 24.46 174.26 24.46 174.26 7.76 174.26 7.76"/><path class="cls-2" d="M187.09,21.27a6.94,6.94,0,0,1-3.84,1.33c-2.11,0-3.36-1.13-3.7-3.31h7.74c0-4.06-1.86-6-4.78-6s-5.14,2.26-5.14,5.59c0,3,1.91,5.85,5.34,5.85a7.15,7.15,0,0,0,4.38-1.3V21.27Zm-7.49-3.42a2.85,2.85,0,0,1,3-2.72,2.52,2.52,0,0,1,2.57,2.72Z"/><path class="cls-2" d="M198.4,22.5a2.59,2.59,0,0,1-1.15.59c-.27,0-.42-.15-.42-.57V16.87c0-2.5-1.76-3.63-4-3.63a4.5,4.5,0,0,0-3.65,1.5v2.37a4.56,4.56,0,0,1,3.48-1.81c1.32,0,2,.56,2,1.93v.59l-1.93.69C191,19.14,189,19.8,189,22a2.66,2.66,0,0,0,2.7,2.7,4.74,4.74,0,0,0,3-1.13c.19.79.71,1.13,1.66,1.13a3.49,3.49,0,0,0,2.11-.86V22.5Zm-3.75-.27a2.8,2.8,0,0,1-1.91.91,1.5,1.5,0,0,1-1.56-1.55c0-1.3,1.61-1.93,3.47-2.57v3.21Z"/><polygon class="cls-1" points="202.81 7.76 200.63 7.76 200.63 24.46 202.81 24.46 202.81 7.76 202.81 7.76"/><path class="cls-1" d="M208.73,11.19l-4.09,4v.24h1.91v5.81a3.25,3.25,0,0,0,3.58,3.45,6.47,6.47,0,0,0,2.64-.74v-2a4.74,4.74,0,0,1-2.47.81,1.52,1.52,0,0,1-1.57-1.67V15.42h3.48v-2h-3.48V11.19Z"/><path class="cls-1" d="M216.71,7.76h-2.18v16.7h2.18V16.57c1-1.15,1.79-1.59,2.74-1.59,1.32,0,2.16,1.05,2.16,2.67v6.81h2.17V17.72c0-3-1.59-4.48-3.74-4.48a4.22,4.22,0,0,0-3.28,1.67h0V7.76Z"/></g></g></svg>