<svg xmlns="http://www.w3.org/2000/svg" viewBox="0 0 172.56 101.78"><defs><style>.cls-1{fill:#fff;}.cls-2{fill:#ddd;}.cls-3{fill:#ccc;}</style></defs><title>islandhealth</title><g id="Layer_2" data-name="Layer 2"><g id="Layer_1-2" data-name="Layer 1"><path class="cls-1" d="M105.05,101.34V90q0-4.33-3.93-4.34c-1.84,0-3.27.82-5,2.83V77.35H92.35v24h3.74V92.13l.5-.56c1.62-1.84,2.71-2.67,3.49-2.67s1.22.69,1.22,2.6v9.84Z"/><path class="cls-1" d="M121.2,99.86l-1.37-3a9.7,9.7,0,0,1-2.78,1.45,5.28,5.28,0,0,1-1.72.26,3.72,3.72,0,0,1-3.24-1.84,5,5,0,0,1-.5-2.44h9.61V92.62c0-4.15-2.49-7-6.08-7-4.15,0-7.27,3.65-7.27,8.49,0,4.67,2.71,7.67,7,7.67a11,11,0,0,0,4.77-1.09c.34-.17.87-.43,1.56-.82Zm-3.74-8h-5.68c.31-2.08,1.44-3.26,3.09-3.26S117.37,89.52,117.46,91.86Z"/><path class="cls-1" d="M135.53,98.58c-1-.1-1.15-.33-1.15-1.71V90.48c0-3.36-1.56-4.87-5-4.87-3.93,0-6.17,1.55-6.17,4.25a2.51,2.51,0,0,0,.19,1l3.55-.82a1.37,1.37,0,0,1-.09-.4c0-.76.9-1.38,2-1.38s1.78.76,1.78,2.4V92l-4.11,1.21c-2.12.66-3,1.38-3.49,2.8a5.08,5.08,0,0,0-.25,1.55,4,4,0,0,0,3.84,4.15,2.29,2.29,0,0,0,.37,0,5.61,5.61,0,0,0,4.05-1.88c.66,1.35,1.25,1.68,3.12,1.68H135l.59-3Zm-4.9-1a5.74,5.74,0,0,1-1,.69,3.18,3.18,0,0,1-1.53.46,1.43,1.43,0,0,1-1.51-1.33,2.09,2.09,0,0,1,0-.25,3.31,3.31,0,0,1,.28-1.28l3.71-1.28v3Z"/><polygon class="cls-1" points="142.16 101.34 142.16 77.35 138.44 77.35 138.44 101.34 142.16 101.34 142.16 101.34"/><path class="cls-1" d="M153.72,99.86,152.53,97a3.89,3.89,0,0,1-2,1c-.59,0-.75-.49-.75-2.2V88.93h3.15V86h-3.15V81.46h-3.53V86l-2.15.39v2.5h2.15v9.51c0,2.27.9,3.32,2.84,3.32a6.42,6.42,0,0,0,3.24-1l1.37-.89Z"/><path class="cls-1" d="M168.53,101.34V90q0-4.33-3.93-4.34c-1.84,0-3.28.82-5,2.83V77.35h-3.75v24h3.75V92.13l.5-.56c1.62-1.84,2.71-2.67,3.49-2.67s1.21.69,1.21,2.6v9.84Z"/><path class="cls-1" d="M12.81,83.16a2.74,2.74,0,0,1,0-5.33,2.75,2.75,0,0,1,0,5.33ZM10.94,101.3V86h3.71V101.3Z"/><path class="cls-1" d="M28.28,90.23c-.37-.26-.72-.49-1-.66a6.52,6.52,0,0,0-3.34-1c-1.43,0-2.37.59-2.37,1.45,0,.69.5,1.12,1.81,1.61a21.47,21.47,0,0,1,4.37,2.11A4.35,4.35,0,0,1,29.25,97c0,2.8-2.31,4.64-5.8,4.64a10.54,10.54,0,0,1-2.37-.3A11.56,11.56,0,0,1,17.53,100l1.18-3.19a11.84,11.84,0,0,0,3.12,1.61,5,5,0,0,0,1.62.3c1.43,0,2.28-.49,2.28-1.31s-.47-1.22-1.47-1.61l-2.5-1c-2.56-1-3.74-2.47-3.74-4.51,0-2.86,2.37-4.8,5.9-4.8a11.42,11.42,0,0,1,2.4.3A8.2,8.2,0,0,1,29.47,87Z"/><path class="cls-1" d="M32.46,101.29v-24h3.71v24Z"/><path class="cls-1" d="M51.3,101.49h-.77c-1.87,0-2.46-.33-3.12-1.68a5.58,5.58,0,0,1-4.06,1.88,4,4,0,0,1-4.21-3.78v-.37a5.07,5.07,0,0,1,.25-1.5c.5-1.42,1.37-2.14,3.49-2.8L47,92V90.66c0-1.65-.56-2.4-1.78-2.4s-2,.62-2,1.38a1.3,1.3,0,0,0,.09.39l-3.56.82a2.54,2.54,0,0,1-.22-1c0-2.7,2.25-4.25,6.18-4.25,3.46,0,5,1.51,5,4.87V96.8c0,1.38.16,1.61,1.15,1.71Zm-4.3-7-3.71,1.29A3.26,3.26,0,0,0,43,97a1.42,1.42,0,0,0,1.25,1.57,1,1,0,0,0,.25,0A3.18,3.18,0,0,0,46,98.16a5.74,5.74,0,0,0,1-.69Z"/><path class="cls-1" d="M64.06,101.29V91.45c0-1.91-.31-2.6-1.22-2.6s-1.87.82-3.49,2.67l-.5.56v9.22H55.11V86h3.74v2.54c1.75-2,3.18-2.83,5-2.83q3.93,0,3.93,4.34V101.3Z"/><path class="cls-1" d="M80.78,101.29V99.21a4.11,4.11,0,0,1-1.47,1.65,4.87,4.87,0,0,1-2.71.86c-3.43,0-6-3.23-6-7.64,0-4.74,3.09-8.56,6.92-8.56a4.28,4.28,0,0,1,1.28.16,4.13,4.13,0,0,1,1.93.92V77.3h3.8v24Zm0-9.15a9,9,0,0,0-.19-2,2.47,2.47,0,0,0-2.43-1.42c-2.06,0-3.59,2.14-3.59,5s1.22,4.71,3,4.71c1.15,0,2.31-.82,3.21-2.3Z"/><polygon class="cls-1" points="84.13 0 129.65 46.19 37.94 46.19 84.13 0 84.13 0"/><polygon class="cls-2" points="118.92 8.92 159.8 50.39 77.45 50.39 118.92 8.92 118.92 8.92"/><polygon class="cls-3" points="49.24 12.25 86.86 50.41 11.08 50.41 49.24 12.25 49.24 12.25"/><path class="cls-1" d="M0,55C18.86,46.5,32.73,42.23,48.39,42.23c17.94,0,29.53,4.63,44.83,10.32,13.72,4.63,22.16,6,36.65,6,17,0,27-1.9,42.69-8.18C157.05,64.18,144.23,71,123.46,71c-14.94,0-27.14-.92-42.16-8.36-13.52-5-20.46-9.78-35.75-10.85C28.53,50.7,17.79,53.31,0,55Z"/></g></g></svg>