<svg xmlns="http://www.w3.org/2000/svg" viewBox="0 0 244.97 111.74"><defs><style>.cls-1{fill:#fff;}.cls-2{fill:#c8c8c8;}</style></defs><title>northern</title><g id="Layer_2" data-name="Layer 2"><g id="Layer_1-2" data-name="Layer 1"><path class="cls-1" d="M245,108.29a1,1,0,0,1-.73.28h-3.36c-.6,0-.74-.15-.74-.75,0-1.29,0-2.59,0-3.88v-8.3c0-.48,0-1,0-1.44a3,3,0,0,0-3.59-2.87,4.94,4.94,0,0,0-2.56,1.32.7.7,0,0,0-.18.41,2.06,2.06,0,0,0,0,.43v13.87a4.69,4.69,0,0,1,0,.53.63.63,0,0,1-.66.67,4.64,4.64,0,0,1-.53,0h-2.78c-.74,0-.89-.16-.91-.91v-28c0-.66.2-.87.87-.88,1.07,0,2.14,0,3.21,0,.68,0,.81.15.81.83V90.05l.56-.45A7.76,7.76,0,0,1,240.56,88a5.08,5.08,0,0,1,4.22,4c.09.3.13.62.19.93Z"/><path class="cls-2" d="M.27,111.74l-.17-.1V94.94l.17-.3c0,.42-.06.83-.06,1.24v15C.21,111.17.25,111.46.27,111.74Z"/><path class="cls-1" d="M144,64.5l-.36-.13a46.07,46.07,0,0,1-12.15-7,28.31,28.31,0,0,1-6.71-7.63,19.72,19.72,0,0,1-2.66-7.8,21.52,21.52,0,0,1,1.09-9.45,34.48,34.48,0,0,1,4.46-8.63,63.75,63.75,0,0,1,8.4-9.64c.21-.2.43-.39.65-.58a.43.43,0,0,1,.57,0c.2.16.16.36.05.56-.5.88-1,1.75-1.49,2.63a81.48,81.48,0,0,0-5.3,11.12,32.87,32.87,0,0,0-1.89,7.42,21,21,0,0,0,1.56,11,34.28,34.28,0,0,0,4.91,7.87,79.07,79.07,0,0,0,7.56,8l1.47,1.37a1.26,1.26,0,0,1,.28.33C144.58,64.24,144.37,64.53,144,64.5Z"/><path class="cls-1" d="M105.35,30.91a36.86,36.86,0,0,1-9.19-1.29,58.17,58.17,0,0,1-9-3.21c-1.1-.49-2.18-1-3.26-1.53a1.83,1.83,0,0,1-.44-.28.29.29,0,0,1-.1-.42.87.87,0,0,1,.37-.25c.08,0,.19,0,.28,0,2.66.39,5.31.82,8,1.15a49.65,49.65,0,0,0,6,.44c1.26,0,2.53,0,3.79,0a25.58,25.58,0,0,0,10.17-2.33,20.26,20.26,0,0,0,5.15-3.56,30.91,30.91,0,0,0,5.49-7.17,72.84,72.84,0,0,0,5.1-11.32c.1-.28.21-.57.32-.85a.39.39,0,0,1,.48-.29c.23,0,.3.21.32.42s0,.26,0,.38a46.56,46.56,0,0,1-3.18,15.77,26.65,26.65,0,0,1-4.24,7.15,19.4,19.4,0,0,1-11.23,6.7A25.06,25.06,0,0,1,105.35,30.91Z"/><path class="cls-1" d="M156.77,90l.56-.44A7.77,7.77,0,0,1,163.48,88a4.91,4.91,0,0,1,3.83,2.94,7.39,7.39,0,0,1,.64,2.93c0,.19,0,.38,0,.57v13a5.52,5.52,0,0,1,0,.58c-.06.44-.21.57-.66.61h-3.69c-.38,0-.49-.16-.53-.56,0-.22,0-.45,0-.67V95.37c0-.42,0-.83,0-1.25a3,3,0,0,0-3.69-2.78,5.31,5.31,0,0,0-2.44,1.27.52.52,0,0,0-.2.46c0,.14,0,.29,0,.43v13.78c0,.22,0,.45,0,.67a.6.6,0,0,1-.58.6h-3.41a2.48,2.48,0,0,1-.38,0,.51.51,0,0,1-.45-.44,4.57,4.57,0,0,1,0-.52V79.69a2.43,2.43,0,0,1,0-.38.55.55,0,0,1,.49-.51,3.05,3.05,0,0,1,.52,0h2.93c.8,0,.92.13.92.93V89.92Z"/><path class="cls-1" d="M72.26,90.05l.7-.56A7.79,7.79,0,0,1,79.12,88a5,5,0,0,1,4.08,3.69A7.25,7.25,0,0,1,83.54,94v13.58c0,.82-.14,1-1,1H79.18c-.36,0-.47-.15-.52-.51a4.43,4.43,0,0,1,0-.63V95.22a7.58,7.58,0,0,0-.09-1.43,3,3,0,0,0-3.64-2.45,5.36,5.36,0,0,0-2.44,1.27.52.52,0,0,0-.2.46c0,.15,0,.29,0,.44v13.91c0,1-.14,1.14-1.13,1.14H68.06c-.46,0-.63-.19-.67-.65a3.1,3.1,0,0,1,0-.43V79.79c0-.87.17-1,1-1h3c.71,0,.83.15.83.87V90.05Z"/><path class="cls-1" d="M121.94,61.9a71.66,71.66,0,0,1-.5,7.61c-.07.59-.13,1.18-.22,1.76a2.94,2.94,0,0,1-.16.6.32.32,0,0,1-.38.22.67.67,0,0,1-.34-.28,1.05,1.05,0,0,1-.06-.47c0-.74,0-1.47,0-2.21a55.13,55.13,0,0,0-1.34-11.31,26.85,26.85,0,0,0-3.7-8.85,20.45,20.45,0,0,0-6.94-6.43,31.86,31.86,0,0,0-9-3.36A59.48,59.48,0,0,0,91.51,38c-2.2-.21-4.4-.35-6.61-.39-.33,0-.67,0-1-.06s-.47-.14-.5-.36.08-.4.41-.5c.55-.17,1.1-.33,1.66-.48a52.42,52.42,0,0,1,8.44-1.53c.71-.07,1.43-.09,2.15-.13a34.72,34.72,0,0,1,4.89.11A24.15,24.15,0,0,1,111.55,38a19.08,19.08,0,0,1,6.53,6.77,26.68,26.68,0,0,1,3,8.29,36.58,36.58,0,0,1,.7,5.81C121.85,59.89,121.9,60.9,121.94,61.9Z"/><path class="cls-1" d="M19,98.47a12,12,0,0,1,1.49-6.08A8.47,8.47,0,0,1,27,88a8.48,8.48,0,0,1,9.27,4.89,12.38,12.38,0,0,1,0,11.33,8.22,8.22,0,0,1-6.22,4.72A8.89,8.89,0,0,1,22.46,107a9.75,9.75,0,0,1-3-5A13,13,0,0,1,19,98.47Zm13.56.12c-.06-.72-.1-1.44-.19-2.15a9.75,9.75,0,0,0-.94-3.2A4.9,4.9,0,0,0,30,91.38a3,3,0,0,0-2.26-.57,3.05,3.05,0,0,0-1.95,1.11,6.33,6.33,0,0,0-1.3,2.65,13.92,13.92,0,0,0-.25,5.38,10.67,10.67,0,0,0,.94,3.21,5.74,5.74,0,0,0,1.27,1.78,3.05,3.05,0,0,0,1.79.86,2.85,2.85,0,0,0,2.34-.87,5.88,5.88,0,0,0,1.38-2.28A12.7,12.7,0,0,0,32.6,98.59Z"/><path class="cls-1" d="M.05,108.2c0-.28,0-.57,0-.86v-15c0-.41,0-.83.06-1.24a2.43,2.43,0,0,1,1.4-1.83,11.13,11.13,0,0,1,3.27-1.08,18.57,18.57,0,0,1,6.73,0A6.65,6.65,0,0,1,13,88.6,4.82,4.82,0,0,1,16.1,93c0,.3,0,.61,0,.91v13.58c0,.15,0,.29,0,.44,0,.45-.19.64-.66.65q-1.73,0-3.45,0c-.52,0-.7-.23-.71-.76v-2.07q0-5.82,0-11.66a6.73,6.73,0,0,0-.18-1.42,2.46,2.46,0,0,0-1.94-2,4.83,4.83,0,0,0-2.33,0,2.48,2.48,0,0,0-2,2.37c0,.42,0,.83,0,1.25v13c0,.23,0,.45,0,.67a.55.55,0,0,1-.53.53,1.84,1.84,0,0,1-.33,0H.83C.52,108.56.21,108.54.05,108.2Z"/><path class="cls-1" d="M120.93,99.67q0-3.67,0-7.34A9.94,9.94,0,0,1,121,91a2,2,0,0,1,.86-1.39A6.42,6.42,0,0,1,123,89a13.34,13.34,0,0,1,4.31-1,18.82,18.82,0,0,1,4.5.07,10.51,10.51,0,0,1,1.68.39,4.9,4.9,0,0,1,3.58,4.66c0,.22,0,.44,0,.67v13.77c0,.92-.13,1-1.06,1h-2.73a3.08,3.08,0,0,1-.53,0,.53.53,0,0,1-.49-.56,5.43,5.43,0,0,1,0-.57c0-4.31,0-8.61,0-12.91a9.37,9.37,0,0,0-.17-1.76,2.51,2.51,0,0,0-2.2-2.11,5.12,5.12,0,0,0-2,0,2.47,2.47,0,0,0-2.08,2.22,8,8,0,0,0-.07,1.1c0,4.44,0,8.89,0,13.34,0,.22,0,.44,0,.67a.57.57,0,0,1-.57.59,2.55,2.55,0,0,1-.39,0h-2.92a1.9,1.9,0,0,1-.34,0c-.4,0-.55-.22-.59-.63,0-.17,0-.35,0-.53Z"/><path class="cls-1" d="M200.05,96.07a28.11,28.11,0,0,0-.1-3.45,3.63,3.63,0,0,0-.16-.65,1.93,1.93,0,0,0-1.68-1.37A2.61,2.61,0,0,0,195.27,92c-.14.26-.25.55-.38.82s-.14.39-.23.58a2,2,0,0,1-2.23,1.2,2,2,0,0,1-1.77-2.33,3.53,3.53,0,0,1,.75-1.75,6,6,0,0,1,2-1.58,9.79,9.79,0,0,1,3.29-1,11.63,11.63,0,0,1,4.2.14,5.4,5.4,0,0,1,.78.24,4.07,4.07,0,0,1,2.72,3,10.66,10.66,0,0,1,.27,2.18c0,3.6,0,7.2,0,10.8a11.2,11.2,0,0,1-.1,1.29,2.55,2.55,0,0,1-1.22,2,7.49,7.49,0,0,1-2.61,1,15.17,15.17,0,0,1-6.9,0,6.48,6.48,0,0,1-2-.9,4.57,4.57,0,0,1-2.11-3.64,5.51,5.51,0,0,1,2.49-5.19A9.69,9.69,0,0,1,195,97.55c1.44-.45,2.89-.85,4.33-1.26Zm0,2.29c-.74.24-1.39.42-2,.67a12.81,12.81,0,0,0-2,1,3.61,3.61,0,0,0-1.36,4.56,2.71,2.71,0,0,0,1.68,1.61,3.73,3.73,0,0,0,2.17.1,1.79,1.79,0,0,0,1.39-1.44,4.68,4.68,0,0,0,.1-1c0-1.64,0-3.27,0-4.9Z"/><path class="cls-1" d="M175.36,98.4c.07.42.13.79.2,1.16a8.39,8.39,0,0,0,1.27,3.14,4.58,4.58,0,0,0,3,2,4.93,4.93,0,0,0,3.34-.55,7,7,0,0,0,2.23-2l.53-.69a.9.9,0,0,1,1-.33,1,1,0,0,1,.74.8,3.08,3.08,0,0,1,0,.91,7.63,7.63,0,0,1-5.9,6.07,8.26,8.26,0,0,1-7.25-1.76,8.68,8.68,0,0,1-2.66-4.36,16.05,16.05,0,0,1-.53-5.56,13,13,0,0,1,.9-4.11A8,8,0,0,1,178.59,88a8.31,8.31,0,0,1,3.71.2,6.7,6.7,0,0,1,4.2,3.41,8.19,8.19,0,0,1,1,3.24,4.64,4.64,0,0,1,0,.53,1.28,1.28,0,0,1-1.19,1.38c-.46.09-.92.14-1.38.21l-9.2,1.36A3.7,3.7,0,0,0,175.36,98.4Zm-.2-2.47c2.54-.41,5-.79,7.45-1.21a4.1,4.1,0,0,0-1.94-3.55,2.7,2.7,0,0,0-1.28-.35,3.5,3.5,0,0,0-3.34,1.91,6.58,6.58,0,0,0-.78,2.31C175.23,95.3,175.21,95.57,175.16,95.93Z"/><path class="cls-1" d="M91,98.39a1.46,1.46,0,0,0,0,.29,10,10,0,0,0,1.12,3.54,4.73,4.73,0,0,0,3.26,2.46,4.89,4.89,0,0,0,3.47-.59,7,7,0,0,0,2.18-2,6.9,6.9,0,0,1,.53-.68,1,1,0,0,1,1.64.37,2.13,2.13,0,0,1,0,.94A7.63,7.63,0,0,1,96,109.06a8.56,8.56,0,0,1-5-1.28,8.41,8.41,0,0,1-3.4-4.68A15.78,15.78,0,0,1,86.91,97a12.54,12.54,0,0,1,.82-3.78,8.06,8.06,0,0,1,5.18-5,8.58,8.58,0,0,1,4.55-.21,6.59,6.59,0,0,1,4.3,3,8.22,8.22,0,0,1,1.29,3.47,4.18,4.18,0,0,1,0,1.06,1.15,1.15,0,0,1-1,1.11c-.53.11-1.07.19-1.6.27L91.3,98.31A1.72,1.72,0,0,0,91,98.39Zm7.14-3.65a1.13,1.13,0,0,0,0-.29A4.3,4.3,0,0,0,97,91.74a2.92,2.92,0,0,0-2.14-.93,3.46,3.46,0,0,0-3.09,1.7,6.9,6.9,0,0,0-1,3,3,3,0,0,0,0,.39Z"/><path class="cls-1" d="M208.52,93.59V79.88c0-1,.1-1.13,1.12-1.14h3c.58,0,.7.16.72.73v27.87a5.56,5.56,0,0,1,0,.58.59.59,0,0,1-.6.62h-3.55c-.5,0-.64-.17-.69-.67a5.61,5.61,0,0,1,0-.58Z"/><path class="cls-1" d="M218,90.53h-1.13c-.28,0-.57,0-.86,0s-.47-.14-.49-.47a8.86,8.86,0,0,1,0-1.15c0-.36.14-.48.51-.5s.93,0,1.39,0l.61,0c0-.2,0-.38,0-.55q0-.84,0-1.68a1.37,1.37,0,0,1,.67-1.25l3.07-2a1.54,1.54,0,0,1,.35-.15.43.43,0,0,1,.57.3,2.05,2.05,0,0,1,.11.7c0,1.34,0,2.69,0,4v.56l.56,0h2.45c.58,0,.69.12.7.72a8.38,8.38,0,0,1,0,.86c-.05.44-.16.55-.61.56-.82,0-1.64,0-2.45,0h-.57a4.77,4.77,0,0,0,0,.5c0,4,0,8,0,11.94a5.48,5.48,0,0,0,.27,1.65,2.29,2.29,0,0,0,2.23,1.66c.35,0,.7,0,1.05.07a.91.91,0,0,1,.56,1.53,2.39,2.39,0,0,1-.72.54,6.47,6.47,0,0,1-3.41.59,5.63,5.63,0,0,1-2.13-.54,4.53,4.53,0,0,1-2.57-3.74,12.22,12.22,0,0,1-.07-1.48q0-6,0-12C218,91,218,90.81,218,90.53Z"/><path class="cls-1" d="M56.54,90.53H55a3.85,3.85,0,0,1-.48,0c-.35,0-.48-.14-.51-.51a8.35,8.35,0,0,1,0-1c0-.48.14-.6.61-.62h1.34l.56,0a4.6,4.6,0,0,0,0-.49c0-.58,0-1.15,0-1.73a1.4,1.4,0,0,1,.69-1.28l3-1.94a1.26,1.26,0,0,1,.26-.13.48.48,0,0,1,.71.34,2.81,2.81,0,0,1,.08.71c0,1.31,0,2.62,0,3.93v.57c.21,0,.38,0,.54,0h2.45c.6,0,.7.11.7.71,0,.28,0,.57,0,.86,0,.44-.15.56-.6.57-.81,0-1.63,0-2.45,0h-.56a4.24,4.24,0,0,0,0,.44c0,4,0,8.06,0,12.09a5.19,5.19,0,0,0,.25,1.51,2.33,2.33,0,0,0,2.29,1.71c.33,0,.67,0,1,.07a.91.91,0,0,1,.54,1.56,2.69,2.69,0,0,1-.86.59,6.3,6.3,0,0,1-3.23.51,6.94,6.94,0,0,1-1.64-.35,4.42,4.42,0,0,1-3.06-3.87,13.82,13.82,0,0,1-.09-1.58V90.53Z"/><path class="cls-1" d="M40.11,99.34c0-2.65,0-5.31,0-8A2.22,2.22,0,0,1,41.61,89a13.66,13.66,0,0,1,3.18-.88,19.11,19.11,0,0,1,4.78-.23,5.38,5.38,0,0,1,2.19.63A2.45,2.45,0,0,1,53,91.29a1.88,1.88,0,0,1-1.51,1.55,1.8,1.8,0,0,1-2-.73c-.22-.31-.42-.64-.66-.94a2.38,2.38,0,0,0-2.91-.61,1.38,1.38,0,0,0-.76.94A6.51,6.51,0,0,0,45,92.74c0,4.86,0,9.72,0,14.58a4.36,4.36,0,0,1-.05.72.53.53,0,0,1-.54.51,3.09,3.09,0,0,1-.43,0H41.14a3.05,3.05,0,0,1-.43,0c-.41-.06-.56-.22-.59-.62a3.85,3.85,0,0,1,0-.48Z"/><path class="cls-1" d="M106.34,99.37c0-2.68,0-5.35,0-8a2.2,2.2,0,0,1,1.48-2.3,13.66,13.66,0,0,1,3.18-.88,18.61,18.61,0,0,1,4.83-.23,5.46,5.46,0,0,1,2,.54,2.46,2.46,0,0,1,1.37,2.83,1.87,1.87,0,0,1-1.44,1.52,1.8,1.8,0,0,1-2-.66c-.19-.26-.36-.53-.55-.79a2.27,2.27,0,0,0-2.59-1,1.55,1.55,0,0,0-1.32,1.45,8.44,8.44,0,0,0,0,1q0,7.22,0,14.44a6.47,6.47,0,0,1,0,.76.49.49,0,0,1-.51.48c-1.26,0-2.52,0-3.78,0-.36,0-.49-.21-.52-.58,0-.16,0-.32,0-.48Z"/><path class="cls-1" d="M102.13,14.44A5.51,5.51,0,1,1,107.61,20,5.51,5.51,0,0,1,102.13,14.44Z"/><path class="cls-1" d="M145.23,39.59a5.51,5.51,0,1,1-5.48-5.52A5.48,5.48,0,0,1,145.23,39.59Z"/><path class="cls-1" d="M108.1,52.4a5.5,5.5,0,1,1-11-.21,5.56,5.56,0,0,1,5.58-5.36A5.49,5.49,0,0,1,108.1,52.4Z"/></g></g></svg>