<svg xmlns="http://www.w3.org/2000/svg" xmlns:xlink="http://www.w3.org/1999/xlink" viewBox="0 0 456 144.59"><defs><style>.cls-1{fill:none;}.cls-2{clip-path:url(#clip-path);}.cls-12,.cls-3,.cls-4{fill:#fff;}.cls-4{font-size:37px;letter-spacing:0.02em;}.cls-12,.cls-4{font-family:HelveticaNeue-Medium, Helvetica Neue;font-weight:500;}.cls-5{letter-spacing:0em;}.cls-6{letter-spacing:0.06em;}.cls-7{letter-spacing:0.02em;}.cls-8{letter-spacing:-0.01em;}.cls-9{letter-spacing:0.02em;}.cls-10{letter-spacing:0.02em;}.cls-11{letter-spacing:0.01em;}.cls-12{font-size:22.5px;letter-spacing:0.04em;}.cls-13{letter-spacing:0.02em;}</style><clipPath id="clip-path" transform="translate(-3.97 -2.93)"><polygon class="cls-1" points="0 0 124.86 0 123.91 73 157.47 125.69 157.47 146 0 146 0 0"/></clipPath></defs><title>phsa</title><g id="Layer_2" data-name="Layer 2"><g id="Layer_1-2" data-name="Layer 1"><g class="cls-2"><path class="cls-3" d="M133.49,128.93c-.62-3.79-1.12-6.91-1.63-10-5.21-2.24-11.43-2.26-13.83-9a9.44,9.44,0,0,0-4.07-9.41l.12-2.33a5.19,5.19,0,0,1,1.49-.16c1.85.4,3.67.88,5.73,1.38l3.83,3.79c2.28,8.36,1.52,7.44,9.8,9.67a7,7,0,0,1,3.92,6.14c.4,4.24,2.61,6.67,6.08,8.45a3.3,3.3,0,0,1,.71.69c.91,4,3.28,7.22,8.6,11.66-.57.72-1,1.93-1.74,2.1a36.6,36.6,0,0,1-7.56,1,36.3,36.3,0,0,1-10.25-1.74,8.81,8.81,0,0,0-1.92-.19c-4.71-.17-9.45-.67-14.05-1.28-4.75-.63-9.43-.36-14.12-.74-4.43-.36-8.64,1.75-13.09,1.06-.3-.05-.69.6-.59.5-2.72.51-2.68-2.52-5.14-2.76-1.76-.17-3.41-2.17-5-3.52s-2.89-3.34-4.66-4.51c-3.08-2-6.27-3.91-8.65-6.8a18.48,18.48,0,0,1-2.66-3.37c-1.14-2.19-3.72-2.84-6.34-2.58L54,112.42A6.52,6.52,0,0,0,49.34,105c-2.61-.89-3.09-2.91-3.31-5.15-.15-1.49,0-3,0-4.5,0-3.37.4-6.9-3-9.17-2.37-5-5.18-9.9-3.62-16.24l4.44-6.61c-.62-1.25-1.2-2.69-2-4s-2.76-1.9-2.9-3.93C36,53.84,32.28,53,30.43,49.82c-1.7-2.91-2.79-6.17-4.31-9.66V36.35l1.71-1.58c3.3,2,4.42,5.15,5.28,8.41,1,1.5,2,3,3,4.38A4.38,4.38,0,0,0,37.5,49c2.93,1.54,4.31,4.32,6,6.94a86.52,86.52,0,0,0,5.38,6.87v5.66C45.2,73.76,46.11,80.16,46,86.31l6,6.58v7.91l5.92,4c.31,1.24.84,3.35,1.52,6.11l2.38,2a6.7,6.7,0,0,1,6.4,3.8c.54.95,1.2,1.84,1.81,2.75,1.59,2.38,4.09,3.51,6.58,4.52,1.13.46,2.51-.33,3.72.75.88.77,2.23,1,3.39,1.49,1.61,3.46,3.25,6.94,5,10.73,2.83,1,6.05-.26,8.92-1.24A48.39,48.39,0,0,1,118,133.09c3.7.34,7.32,1.57,11,2.39,4.13.92,8.19,2.27,12.45,2.5,1.15.07,2.2,0,3.16,1,.37.39,1.51.06,3.4.06-2.4-1.74-3.76-3.2-5.42-3.83A20.43,20.43,0,0,1,133.49,128.93Z" transform="translate(-3.97 -2.93)"/><path class="cls-3" d="M4,7.55c0-1.77-.51-3.69,1.9-4.62,4.63,3.48,10,4.81,15.77,5.17a73.35,73.35,0,0,1,13,2.24,48,48,0,0,1,11.67,4.4c3.77,2.06,8.35,1.8,12.42,1.08,3.38-.59,7-.54,10.14-1.93a10.58,10.58,0,0,1,6.61-.79c5.46,1.15,11,2.14,16.19,4.28,2,.84,4.22.71,6.22,1.93,1.77,1.08,4.14,1.24,6.27,1.66a10,10,0,0,0,3,0A7.17,7.17,0,0,1,113,22.46l-2,1a4.17,4.17,0,0,1,2.35,2.38c.7,1.29.89,2.24-.08,3.49-.42.54-.3,1.55-.3,2.35,0,9.49-.07,19,0,28.47a50.37,50.37,0,0,0,1,7.08c.33,2.18-.56,4-1.6,6.43l-2.28-3c-.71-2.76,1-5.71-1.13-8.17.31-2.79-1.28-5.23-1.6-7.78-.52-4.11-3.15-8.3-.4-12.54.38-6,.77-11.95,1.15-17.85A4.93,4.93,0,0,0,106.8,24a30.3,30.3,0,0,1-5.08.91A28.3,28.3,0,0,1,96.64,24c-1.86-.34-3.73-.64-5.58-1s-3.85.77-5.67-.9C84.76,21.51,83.15,22,82,22c-10,0-20-.09-30,0-6.61.08-12.76-1.84-19-3.47-7.65-2-14.87-5.44-22.76-6.59C7.46,11.58,5.88,9.32,4,7.55Z" transform="translate(-3.97 -2.93)"/><path class="cls-3" d="M65.91,136c.69,1.3,1.39,2.5,2.16,3.84h4.72l.57-3a11.28,11.28,0,0,1,7.35,6.72l-1,2.36H77.23l-.56-3.4-1.09,2.65c-3.56-2-7.5-.65-11.27-1.24-.46-.52-1.25-1-1.25-1.5,0-2.17-.77-3-3-3.5-1.7-.35-3.15-2-4.69-3-1.29-.91-2.54-1.88-3.81-2.82h-3.2L46,129.45v-3.89l-6.93-3.63v-3.41c.4-1.09,3.37-3.1,8.35-5.46l5.72,6.88c2.68-.07,4.91,1,7.27,1.3,2.08.3,3.86,2.64,5.81,4.11l-.83,6,5.89,5.89L65.91,136c0-1.47-1.15-.82-1.91-1l-2-2.76v-4.91c-1.12-.44-2.29-1.34-3.37-1.24-2.59.24-4.47-1.21-6.65-2l.15-.14-.69-.82-.32.32a6,6,0,0,0,.86.64c0,.89,0,1.82,0,2.61.77.58,1.26,1,1.78,1.34,1.73,1.23,4.1,2.09,5.07,3.77,1.29,2.25,3,2.89,5.15,3.23C64.09,136.5,65.24,135.85,65.91,136ZM46.33,119h.34v-1h-.34Z" transform="translate(-3.97 -2.93)"/><path class="cls-3" d="M340.82,48.9h-5.7V37.22H324.06V48.81h-5.73c.09.08-.05,0-.15-.14a.77.77,0,0,1-.17-.42c0-8.64,0-17.29,0-26.09h5.88v9.71h11.06V22.1h5.88Z" transform="translate(-3.97 -2.93)"/><path class="cls-3" d="M154,79.27l-2.74,3.63L147,85h-8.11l-5.21-2.66c-.5-1-1.17-2.26-1.68-3.55-.43-1.1-.67-2.29-1.05-3.64h5.8a8.11,8.11,0,0,0,.52,2.56,11.33,11.33,0,0,0,2.07,2.15c5.84.46,6.23.4,8.53-1.24V74.91c-2.73-1-5.42-2.32-8.25-2.81-3.63-.64-6.38-1.78-6.93-5.86-.06-.4-.54-.74-.76-1,.78-2,1.49-3.89,2.28-5.94.39-.14,1.26-.17,1.5-.58,1.17-1.95,3.43-1.06,4.71-1.88,1.8-1.16,2.8-.75,4.31.12.76.44,2-.07,2.87.28a9.69,9.69,0,0,1,3.1,2.09A7.23,7.23,0,0,1,152.47,62a22.31,22.31,0,0,1,.69,3.82h-4.89c-.07-.35,0-.92-.29-1.23-1.09-1.24-2.26-2.41-3.4-3.6H141l-3,3.35c-.12,1.19.56,2.11,2.27,2.68,2.06.67,4.19,1,6.24,1.77,5,2,5.07,1.81,7.54,5.67Z" transform="translate(-3.97 -2.93)"/><path class="cls-3" d="M152.64,24.12a14.53,14.53,0,0,0,1,2c2.83,3.94,1,7.49-1.15,10.8A5.22,5.22,0,0,1,147.92,39c-2.81,0-5.63,0-8.78,0v9.85h-5.91V22c4.67,0,9.45-.18,14.2.1C149.16,22.2,150.84,23.39,152.64,24.12Zm-13.47,3v6.83h8.42c1.95-2.67,1.94-4.21,0-6.83Z" transform="translate(-3.97 -2.93)"/><path class="cls-3" d="M313.31,85c-.92-2.42-1.78-4.72-2.63-7H300.52c-.8,2.29-1.62,4.59-2.43,6.88h-4.71c-1.2-1.5.24-2.6.61-3.88,2.28-7.83,5.91-15.16,8.44-22.89.14-.42.67-.71,1.05-1.09h5l10.35,26.65C317.53,85.8,315.31,84.85,313.31,85Zm-4.43-12.12c-1.11-3-2.16-5.92-3.27-8.94-1.18,3.19-2.23,6-3.32,8.94Z" transform="translate(-3.97 -2.93)"/><path class="cls-3" d="M354.17,58.28c2-1.86,3.78-1.91,5.75.13v6.71L363.24,64h4.28L372,67.22V84.44c-2.78.63-2.78.62-4.86-.75V69.4l-4.52-1.81L360.76,71l-.81-.64V83.55c-1.93,2.11-3.75,2-5.78.2Z" transform="translate(-3.97 -2.93)"/><path class="cls-3" d="M429,32.47V48.78h-4.91v-14c-1.22-2.22-3-1.74-4.58-1.74L417,35.5V48.75h-5.85V22.22h5.79V29.8c2.91-1.37,5.78-.55,8.53-.83Z" transform="translate(-3.97 -2.93)"/><path class="cls-3" d="M368.45,38.09l9.33-1.42c.68-1.28.35-2.52-1.43-3.58h-4.17c-.55.95-1.1,1.89-1.6,2.77h-4.93l1.57-4.66c3.79-3.38,8.06-1.78,12.23-2.28l3.46,4.54v11.1l2,1.31v4h-4.49l-1.75-1.75A14.87,14.87,0,0,1,369.45,50C363.71,46.3,363.45,43.18,368.45,38.09Zm4.64,3.5-2.54,2.54,3.55,2L378,43.7c-.06-1.25-.11-2.48-.18-4.12C376.14,41.85,374.16,40.6,373.09,41.59Z" transform="translate(-3.97 -2.93)"/><path class="cls-3" d="M291,32.63v13l1.85.62v3.54h-4.58L286.54,48c-3.93,1.94-4.11,2-8.17,1.91-5.17-1.43-5.71-4.74-5.29-8.53l3.21-3.21,8.32-1.51,1.68-1.36-1.42-2.15H280.2l-1.78,2.68h-4.05c-1.37-1.37.52-4.6,4.11-6.84C282.92,29.12,287.73,27.9,291,32.63Zm-11.81,8.69-1.76,1.86,4.54,3,4.17-2.5c-.15-1.35-.29-2.54-.4-3.52Z" transform="translate(-3.97 -2.93)"/><path class="cls-3" d="M345.69,47.31,343,42.11c-.58-5.35.84-10.22,6.64-13.11h6.78c1.56,1.52,4.43,1.68,4.59,4.54,2.25,1.34-.57,4.43,2.14,5.27-.78,1.74-1.74,2.27-3.27,2.22-3.81-.1-7.64,0-11.46,0-.1,3.12,2.24,4,4.75,5.14l5.67-4h2.93a4,4,0,0,1,.18,1.41A9.23,9.23,0,0,1,354.37,50c-1.16.11-2.33,0-3.45,0ZM352.18,33l-4.13,4.07c3.07-.29,6.06.38,9.61-.63L354.52,33Z" transform="translate(-3.97 -2.93)"/><path class="cls-3" d="M254.36,64c4.77,2.47,6.92,6.33,6.6,11.92H247.25c0,2.77,0,2.77,2.33,5.08,2.39.07,4.72,0,5.75-2.9h5.31c-3.41,7.43-5.93,7.21-12.75,6.9-2.35-1.71-5.35-2.76-5.9-6.2-.46-2.87-1.2-5.71.23-8.54A12.72,12.72,0,0,1,248.94,64Zm-2.31,3.55a41.15,41.15,0,0,0-4.28,2.27c-.48.32-.58,1.2-1.11,2.41,3.22-.56,5.82.21,8.31-.53,0-.57.14-1,0-1.21C254.09,69.54,253.15,68.65,252.05,67.55Z" transform="translate(-3.97 -2.93)"/><path class="cls-3" d="M162.32,84.69l-4-2C156,77.44,156,77.44,156,70.86a11.52,11.52,0,0,1,7.05-6.77h5.55l5.23,4c.11,2.82,2,5.1.77,7.89H161.4c-.32,3.81.88,4.78,6.37,5.07.36-.43.89-1.06,1.41-1.7s.8-1,1-1.28h4.4c.06.27.21.56.13.74-.61,1.24-1.27,2.45-2,3.94C169.87,84.29,166.72,85.78,162.32,84.69Zm3.5-17a40,40,0,0,0-4,2.09c-.5.33-.64,1.21-1,2h9.54Z" transform="translate(-3.97 -2.93)"/><path class="cls-3" d="M173.61,47.82c-2.58-3.41-4.53-6.71-3.38-10.42,1-3.32,2-7.12,6.15-8.4,2,0,3.94,0,5.91,0A6.65,6.65,0,0,1,189,33.27c1.25,2.8,3.15,5.47,1.05,8.73-.37.59-.05,1.62-.05,2.31-3.07,4.06-6.69,6.81-12.81,5.32Zm11.22-4.89v-7.6L182.52,33h-3.81C176,34.37,176,37.22,175,39l2.2,5.65,3,1.48Z" transform="translate(-3.97 -2.93)"/><path class="cls-3" d="M440.54,91.87h-6.42V88.19h3.48L440,84.33c-1.37-3.46-3-6.65-3.87-10s-3.72-6.22-3-10.18h4.63l5,13.54c1.79-4.85,3.39-9.16,5-13.48h4a2.84,2.84,0,0,1,.29,1.11,11.16,11.16,0,0,1-.54,2.76c-1.95,5.34-4.11,10.6-5.88,16C444.53,87.15,443.23,89.93,440.54,91.87Z" transform="translate(-3.97 -2.93)"/><path class="cls-3" d="M275.78,85.06c-4.26-.24-8.14.86-11.19-2.49-1-1.38-2.31-3.1-1.27-5.45h4.07l3.15,4.26L276,79.7c0-3.46-3.05-2.17-4.36-3.44-1-1-2.79.32-4.07-1.05-.76-.82-2.2-1-3.34-1.48-1.47-2.49-2-5,1-7.85L269,64c2.67.23,6.16-.85,9.39,1.81.61,1.38,2.21,2.74,1.36,5h-4.32C275.17,68.73,273,69,272,67.7l-3.75,1.57c.08.22.09.53.25.67a7.78,7.78,0,0,0,4.63,2.12,21.19,21.19,0,0,1,4.06,1.07l3.75,4v3.62Z" transform="translate(-3.97 -2.93)"/><path class="cls-3" d="M376.3,68.21C380.53,64,380.53,64,388,64c7,2.73,7.69,8.13,6.81,14.59A11.4,11.4,0,0,1,387.85,85c-4.06.39-8.74.42-11.06-3.54A15.21,15.21,0,0,1,376.3,68.21Zm7-.21-3.18,4.3a8,8,0,0,0,3.42,8.58h3.08l3.26-3.26V72.41L386.22,68Z" transform="translate(-3.97 -2.93)"/><path class="cls-3" d="M240,32.45V48.8H235v-14c-1.21-2.24-3-1.73-4.56-1.72L228,35.49V48.74h-5.84V30.34l1.2-1.2h3.38l.42,1.61c1.15.15,1.22-1.28,2.08-1.62h7.39Z" transform="translate(-3.97 -2.93)"/><path class="cls-3" d="M36.18,100.4l1.68,4.45-1.57.18-11-7.38a22.69,22.69,0,0,1,0-3.38,26.66,26.66,0,0,1,1-3.52L19,83.68V81.49l1.42-1.41c8.42-.18,10.16.17,15.17,3-.94,2.33-1,2.36-2.25,3.09l1,4.62,2.75,2.75C36.59,95.79,37.86,98.35,36.18,100.4Zm-2.66-2.49.64-.42-2.72-4.43L30,94.51Zm-3-7.59,1.74-4.16H28.76Z" transform="translate(-3.97 -2.93)"/><path class="cls-3" d="M326.42,80.9h3.17c2.53-2.3,2.5-5.18,2.43-8.12s0-5.62,0-8.6h4.83c.4,6.69,0,13.59.2,20.65h-4.71c-.13-.37-.33-1-.81-2.38l-.65,2.69c-4.32-.35-7.65.64-10.41-2.2-2.57-5.59-1-11.67-1.45-17.21,1.2-2.25,2.95-1.71,5-1.66,0,3.41.1,6.85,0,10.28A7.76,7.76,0,0,0,326.42,80.9Z" transform="translate(-3.97 -2.93)"/><path class="cls-3" d="M261.52,41.25,259,47.38c-4.36,3.21-9.12,3.93-13.16.67-3.12-2.51-5.35-5.66-2.68-14.83l5.09-4.28c3.5.31,7-.82,9.93,1.74A7.51,7.51,0,0,1,261,36.81l-4.19.2-3.1-4h-3.47l-3.16,4.35c-.6,4.25.77,7.26,5,8.66l2.7-1.35,1.55-3.42Z" transform="translate(-3.97 -2.93)"/><path class="cls-3" d="M240,72h-4.62l-2-2.85-3.14-1.22-4.17,4.43c0,1.76-.6,4.65,1.29,7.4,3.18,1.37,3.18,1.37,6.29.18l1.7-3.75c1.81-.35,3.55-.46,4.75,1.67-.75,1.52-1.57,3.17-2.45,4.93-2.94,1.69-6.14,3-9.86,2.1a11.16,11.16,0,0,1-6.7-6.84c-.6-5.5-.47-11.25,7.21-14C236.6,64,239.23,65.6,240,72Z" transform="translate(-3.97 -2.93)"/><path class="cls-3" d="M190.73,64.12h5.09c2.52,4.22,2.89,9.29,4.78,14.32.89-2.74,1.65-5.08,2.4-7.42s1.4-4.41,2.16-6.82h4.63c-.13,3.26-4.73,16.72-7.06,20.64H198C195.73,78.19,192.64,71.51,190.73,64.12Z" transform="translate(-3.97 -2.93)"/><path class="cls-3" d="M203.11,49h-5.63c-2.26-6.41-4.56-12.9-7-19.76h5.33L200.48,43,205.2,29.1H210c.16,3.79-2.59,6.61-3.16,10.13S204.37,45.82,203.11,49Z" transform="translate(-3.97 -2.93)"/><path class="cls-3" d="M183,122.5c-.29,2.1.61,4.44-1.26,6.69l2.09,2.22a7.7,7.7,0,0,1-1.31,6.4c-3.88,2.43-8.59.52-13.34,1.45-.48-6.45-.08-12.67-.24-18.87C177.91,119.44,179.25,119.64,183,122.5Zm-3.43,8.65h-7.38v4.73h7.37C181.42,134.33,181.67,132.86,179.61,131.15Zm.69-4.91-1.3-3.15h-6.83v4.83h6.35Z" transform="translate(-3.97 -2.93)"/><path class="cls-3" d="M348.12,69.28V79.77c1.32.43,3.45,0,3.81,2,.16,1-.46,2-.73,3.09h-4.61l-3.44-2V69.47c-1.63-.86-4.38-.19-4.13-3.13.18-2.13,1.71-2.49,3.83-2.33.09-1.58.17-3.15.26-4.87h4.79v4.53c3.39.73,4.1,1.25,4.1,2.83S351.29,68.6,348.12,69.28Z" transform="translate(-3.97 -2.93)"/><path class="cls-3" d="M407.93,44.82v3.66l-3.21,1.67-5.63-2.08v-15h-3.9c.13-3.59.13-3.59,3.72-4.18V23.25c3-.13,3-.13,4.95,1v4.53l4,.32v3.81H404.1V44.82Z" transform="translate(-3.97 -2.93)"/><path class="cls-3" d="M428.17,79.81c4.26.84,4.66,1.6,2.56,5h-4.28l-3.43-2V69.16l-2.86-.31v-4.6l2.74-.48V59.21H428v4.36c1.61.75,4,.09,4.05,2.78.05,1.68-.59,2.2-3.84,2.84Z" transform="translate(-3.97 -2.93)"/><path class="cls-3" d="M23.49,18.08a8.88,8.88,0,0,1,3.57,8.13c-.1,1.35-.46,2.79.67,4.21.59.75.1,2.36.1,4-3.52-1.63-2-6.13-5.29-7.18-4.17-1.27-7.43,1.45-11,2.52-4.13-1-4.79-4.9-7-8.12l2.2-1.4,4,4c.8-.35,2.3-.52,2.62-1.23C15.36,18.65,18.86,17.58,23.49,18.08Z" transform="translate(-3.97 -2.93)"/><path class="cls-3" d="M296.15,22.1h5.7V48.75h-5.7Z" transform="translate(-3.97 -2.93)"/><path class="cls-3" d="M183,83.68c-2.23,1.69-4.07,2.06-5.91-.1V65.48c1.17-2,2.88-1.51,4.59-1.39l.64,1.76a20.19,20.19,0,0,1,2.75-1.38,24.28,24.28,0,0,1,3.06-.61c2.12,1.27,2.12,3,1.66,5h-4.13L183,71.5Z" transform="translate(-3.97 -2.93)"/><path class="cls-3" d="M166.6,105.7a29.23,29.23,0,0,1-4,1.25,28,28,0,0,1-4.35,0v6.83h-3.95V95.15h10.27L168,97.23C167.79,100,168.71,102.88,166.6,105.7Zm-1.95-2.6c.63-2,.76-3.79-1-4.92h-5.43v6.15Z" transform="translate(-3.97 -2.93)"/><path class="cls-3" d="M269.75,113.94c-1.7.34-3.17,0-3.59-1.37-1.23-4-2.17-8.06-3.31-12.45l2.67-.16,3.06,9.39c.6-2.85,1.11-5.3,1.74-8.34l3-1.48c1,3.14,1.86,5.87,2.94,9.29.73-2.64,1.19-4.44,1.72-6.21.68-2.29.71-2.29,3.82-2.43-1.38,4.55-2.74,9-4.14,13.69h-3.37l-1.78-8.47C271.45,108.72,270.58,111.39,269.75,113.94Z" transform="translate(-3.97 -2.93)"/><path class="cls-3" d="M170,29.4v3.12l-1.49,1.42h-3L162.9,37.1c-.36,3.33-.81,7.45-1.28,11.74h-4.38V30.22c.93-1.68,2.68-1.19,4.4-1.2l.64,1.89C164.69,29.55,167.13,28.15,170,29.4Z" transform="translate(-3.97 -2.93)"/><path class="cls-3" d="M398.15,64.09h3.44l1.56,1.56,6.61-2.23v5.46h-3.14l-3.48,3.48v12.4h-5Z" transform="translate(-3.97 -2.93)"/><path class="cls-3" d="M392.84,48.91h-4.68V22.18l4.68-.21Z" transform="translate(-3.97 -2.93)"/><path class="cls-3" d="M300.93,94.4v19.4h-9.79l-3-4.1c-.51-3.83,0-7.19,3.4-9.6,3.82-.1,3.82-.1,6.23,1,.13-1.63.24-3.15.37-4.85Zm-3.1,15.13v-5.14c-1.36-1.84-3-1.43-4.91-1.18l-2.29,4.9,2.95,2.9C295.1,110.92,296.69,111.44,297.83,109.53Z" transform="translate(-3.97 -2.93)"/><path class="cls-3" d="M303.14,121.29l1.85-1.62,2,1.74v4.16l5.35-.75,2.53,2.53V138.9h-2.67V128.31c-1.87-.45-3.52-.85-5,1.1v9.35h-4Z" transform="translate(-3.97 -2.93)"/><path class="cls-3" d="M304.58,101.91c2.45-2.32,5.11-1.86,7.81-1.92,2.35,2,4.15,4.24,3.42,8.05H305.55c.73,1.28,1.17,2,1.62,2.86h5a5.08,5.08,0,0,1,1.25-1.74c.52-.39,1.51-.14,2.85-.21l-3.38,4.94H306.7C302.4,110,301.92,107.46,304.58,101.91Zm7.32,1.4c-4-.33-4-.33-5.74,1.51h5.74Z" transform="translate(-3.97 -2.93)"/><path class="cls-3" d="M188.59,139c-2.79-2.21-4.16-5-3.58-8.15l2.35-4.65a7.14,7.14,0,0,1,5.76-1.12c3.76,1.32,5.22,3.83,4.81,7.78h-9.81c1.33,2.71,1.33,2.71,4.22,4.29l3.2-3.2,2.63.14c-.49,1.32-.89,2.41-1.31,3.53C194.35,139.57,191.36,138.87,188.59,139Zm6.37-9.17c-2.49-2.5-3.47-2.49-5.89,0Z" transform="translate(-3.97 -2.93)"/><path class="cls-3" d="M264.16,30.29c2.83-1.72,2.93-1.72,5.71,0V48.75h-5.71Z" transform="translate(-3.97 -2.93)"/><path class="cls-3" d="M273,132.79c-3.21.55-6.18-.19-9.64.6l3.21,3.86c1.39-.89,3.38-.81,3.71-3.13h2.52v2.6c-.59.56-1.44,1.34-2.62,2.44l-7.68-.74c-.9-2.34-1.67-4.34-2.45-6.39l1.46-4,3.08-3h4.92l3.49,3.51Zm-3-2.95c-2.55-2.5-3.54-2.49-5.87,0Z" transform="translate(-3.97 -2.93)"/><path class="cls-3" d="M218.83,48.89h-5.64V30.28a7.68,7.68,0,0,1,2-1.23c1-.31,1.68.06,3.64,1.22Z" transform="translate(-3.97 -2.93)"/><path class="cls-3" d="M240.09,107.17a10.77,10.77,0,0,1,4.5-7.07h4.88l3.44,4V108h-9.37c.74,1.29,1.18,2.07,1.63,2.87h4.62l.35-1.74,3.09-.23-1.38,3.7c-2.2,1.76-4.82,1.37-7,1.35l-2.61-1.3Zm10.4-2.33c-3.28-2.44-4-2.4-6.49,0Z" transform="translate(-3.97 -2.93)"/><path class="cls-3" d="M226.84,126.19c.9,2.25,1.69,4.23,2.69,6.71H219.2c-.73,3.26,2.41,2.67,3.35,4l4.72-3.17c2,2.88-.73,3.75-1.69,5.23h-6L216,135.38v-5.89C219,124.71,221.21,124,226.84,126.19Zm-7.8,3.65h5.89C222.51,127.35,221.53,127.34,219,129.84Z" transform="translate(-3.97 -2.93)"/><path class="cls-3" d="M286,126.48v9.93l2.19,1.61c-1.82,2.58-3.73,0-5.62.68s-4.17.14-6.42.14l-2.24-3.6,1.28-3c2.17-2,6.19-.34,8.23-4.05l-5.22-.27c-.13.63-.22,1.08-.38,1.89l-3.09.23c.55-1.49,1-2.57,1.37-3.69A8.85,8.85,0,0,1,286,126.48Zm-3.15,6.8c-2.19-.5-4.2-.81-5,2.15l2,1.86a10.61,10.61,0,0,1,1.33-1,16.88,16.88,0,0,1,1.64-.57Z" transform="translate(-3.97 -2.93)"/><path class="cls-3" d="M391.84,99.69l6.83,1.14c.88,2.24,2.14,4.08,2.18,6s-1.14,3.78-1.75,5.55c-2.2,2.1-4.85,1.61-7.89,1.69l-4.16-4C387,105.78,386.36,101.73,391.84,99.69Zm3.83,3.48H392.1l-2.17,3.76c.36.69.69,1.38,1.08,2s.85,1.32,1.23,1.89c1.94.27,3.74.53,4.71-1.44v-5Z" transform="translate(-3.97 -2.93)"/><path class="cls-3" d="M346.92,100l4.08,4.08v5.46L347.76,114h-5.95l-2.5-1.33C339,110.79,337,109.38,337,107c0-2.19,1.85-3.58,2.14-5.6C341.32,99.57,344,100,346.92,100Zm-1.25,3.18h-3.34l-1.22,1.22v5.15c1.21,1.89,2.88,1.52,4.28,1.38l2.59-2.35v-3.09Z" transform="translate(-3.97 -2.93)"/><path class="cls-3" d="M255.31,124.81l2.54,2.54V138.9h-2.67V128.29c-1.88-.42-3.54-.81-5.07,1.14v9.45l-3,.15V120.1l2.81-.13v5.61Z" transform="translate(-3.97 -2.93)"/><path class="cls-3" d="M336,107.28v4.23L333.48,114c-2.64,0-5.42.56-8.14-1.25l-1.68-3.38,2.79-.39,2.08,2.08,4.93-.24c-2-3.71-6-2.07-8.37-4.19v-5.21c2.3-1.77,4.9-1.39,7.35-1.25a4.51,4.51,0,0,1,3.21,2.93l-1.36,2.6c-1.21-1.15-2-1.9-2.65-2.49h-3.47l-.19,1.26Z" transform="translate(-3.97 -2.93)"/><path class="cls-3" d="M221.17,103.2c-2.11-.28-3.74-.61-5.06,1.27v9.41l-3,.14V100l3.74.53c1.37-1.54,3.67-.06,5.68-.65,3.36,4.13,2.27,9,2.5,13.9l-3.87.25Z" transform="translate(-3.97 -2.93)"/><path class="cls-3" d="M427.83,111.67l-2.51,2.51-7.62-.73-2-4.1,2.77-.41,1.81,1.81H425v-1.51l-6-1.8-1.87-2.23v-3.84c3.2-1.83,6.34-2,9.59-.07.33.65.75,1.47.91,1.77l-1.29,2.61-2.65-2.5h-3.49l-.18,1.26,7.85,2.76Z" transform="translate(-3.97 -2.93)"/><path class="cls-3" d="M108.39,73.52,111.9,75V90.47c2.77,1.47,2.77,1.47,2.95,4.18-4.07.33-4.38.21-8-3.27C107.63,85.73,105.84,79.77,108.39,73.52Z" transform="translate(-3.97 -2.93)"/><path class="cls-3" d="M179,110.44v-7l3.57-3.49h6.19l3.24,4.47v6L188.4,114h-5.91Zm4.6-7.34L182,104.41v5.12l1.54,1.54c1.73-.45,4,.86,5.59-2-.3-1.61-.69-3.75-1.09-5.92Z" transform="translate(-3.97 -2.93)"/><path class="cls-3" d="M217.84,84.91h-4.68V64.26h4.68Z" transform="translate(-3.97 -2.93)"/><path class="cls-3" d="M412.17,64.09h4.66V84.81l-4.66.24Z" transform="translate(-3.97 -2.93)"/><path class="cls-3" d="M361.83,110.91h4.8c2.33-3.38.95-7.27,1.54-11.31l2.73,1.59V114l-3.78-.6c-1.38,1.58-3.68.08-5.52.62l-2.44-2.39V100.09h2.67Z" transform="translate(-3.97 -2.93)"/><path class="cls-3" d="M235.37,100l3.48,2.19v2.71H236.4l-1.82-1.82c-1.55,0-3.35-.79-4.48,1.77v5.27l3.87,1.15,4.13-3.54c2.18,2-.15,3.33-.2,4.87a8.74,8.74,0,0,1-9.73,0c-.56-1.46-1.27-3.33-1.94-5.06.61-2,1.24-4.08,1.86-6.12C230.3,99.56,232.94,100,235.37,100Z" transform="translate(-3.97 -2.93)"/><path class="cls-3" d="M406,113.9h-2.85V100.06l3,.8c2.54-1.56,5.18-1.11,7.78.53v12.47h-2.8V103.23c-1.93-.27-3.55-.7-5.09,1.39Z" transform="translate(-3.97 -2.93)"/><path class="cls-3" d="M199.5,108c.9-2.61,1.79-5.22,2.71-7.89H205a6,6,0,0,1,0,2.33,77.42,77.42,0,0,0-3.42,8.53c-.29.87-.54,1.77-.87,2.86h-3.29c-1.53-4.28-3.13-8.75-4.87-13.63l3.18-.28c.93,2.66,1.88,5.37,2.82,8.08Z" transform="translate(-3.97 -2.93)"/><path class="cls-3" d="M373.71,103h-1.53c-.07-.87-.14-1.77-.22-2.77l1.89-.39c.08-1.11.17-2.35.27-3.71h2.82v3.68l2.88.33v2.57l-2.66.5v7.53l2.7.48v2.56h-4.42C372.74,110.76,374.74,106.56,373.71,103Z" transform="translate(-3.97 -2.93)"/><path class="cls-3" d="M203.08,127.83v7.83c1.39.53,2.94.81,3,3.11l-4.49.28-1.38-1.38v-9.2l-2-.68v-2.47l1.55-.52a10.54,10.54,0,0,1,.72-2.66c.35-.6,1.18-.93,2.28-1.73l.42,4.4h2.63c.1,1,.18,1.94.29,3Z" transform="translate(-3.97 -2.93)"/><path class="cls-3" d="M212,121.17v3.45c1.5.56,3,.9,3,3.14l-2.84.4v7.46c.8.83,3.15.59,2.72,3.21-1.95,0-4,1-5.84-1.31v-9.19l-1.85-.52-.27-2.43,2-.77v-3.44Z" transform="translate(-3.97 -2.93)"/><path class="cls-3" d="M294.17,125.2l1.7-.44v-3.62l3-.17.15,3.38,4,3.09-3.8.73v7.53c1.21.52,2.8.75,2.78,3.07l-4.48.28-1.38-1.38v-9.2l-2-.69Z" transform="translate(-3.97 -2.93)"/><path class="cls-3" d="M234.17,138.91h-4V126.26l2.29-1.7c.32.92.51,1.48.86,2.51l2.21-2h2.39c0,.79.08,1.56.12,2.51l-3.86,1.78Z" transform="translate(-3.97 -2.93)"/><path class="cls-3" d="M173.8,100.55c.76-1.13,2.35-.41,4.09-.53l.16,2.73a5.82,5.82,0,0,0-5.08,2.91v8a8,8,0,0,1-1.34.28,9.52,9.52,0,0,1-1.51-.14V100Z" transform="translate(-3.97 -2.93)"/><path class="cls-3" d="M353.17,95.09h2.66v18.82h-2.66Z" transform="translate(-3.97 -2.93)"/><path class="cls-3" d="M289.16,120.09h2.68v18.82h-2.68Z" transform="translate(-3.97 -2.93)"/><path class="cls-3" d="M283.16,101.29l1.76-1.58,1.95,1.57v12.57l-3.71.18Z" transform="translate(-3.97 -2.93)"/><path class="cls-3" d="M382.08,113.83V100.17H385c0,2.07,0,4.32,0,6.58v7.08Z" transform="translate(-3.97 -2.93)"/><path class="cls-3" d="M209.83,113.91h-2.66V100.09h2.66Z" transform="translate(-3.97 -2.93)"/><path class="cls-3" d="M269.84,22.16c.25,1.92.58,3.7-1.55,4.84h-2.74c-1.8-1.17-1.78-2.87-1.35-4.84Z" transform="translate(-3.97 -2.93)"/><path class="cls-3" d="M217.5,27h-2.92c-1.84-1.15-1.8-2.86-1.39-4.83h5.71V25.6Z" transform="translate(-3.97 -2.93)"/><path class="cls-3" d="M217.91,57.16v4.68h-4.66V57.16Z" transform="translate(-3.97 -2.93)"/><path class="cls-3" d="M412.08,61.83V57.17h4.75c.06,1.37.13,2.92.21,4.66Z" transform="translate(-3.97 -2.93)"/><path class="cls-3" d="M262,105.25v2.54a32,32,0,0,1-7.47,0l1.59-2.56Z" transform="translate(-3.97 -2.93)"/><path class="cls-3" d="M321.85,135.19v3.67l-3.51.16C318.15,135.41,318.24,135.32,321.85,135.19Z" transform="translate(-3.97 -2.93)"/><path class="cls-3" d="M287.62,97.07l-2.41,2.24-2.52-2,2.18-2.87Z" transform="translate(-3.97 -2.93)"/><path class="cls-3" d="M433.83,113.92h-2.66v-3.84h2.66Z" transform="translate(-3.97 -2.93)"/><path class="cls-3" d="M384.92,95.17v3.66h-2.77q-.07-1.56-.18-3.66Z" transform="translate(-3.97 -2.93)"/><path class="cls-3" d="M207,95.09h2.72c1,2.15-.09,3.21-2.37,4.4Z" transform="translate(-3.97 -2.93)"/></g><text class="cls-4" transform="translate(126.03 45.49)">P<tspan class="cls-5" x="25.34" y="0">r</tspan><tspan x="38.37" y="0">ovincial</tspan><tspan class="cls-6" x="173.97" y="0"> </tspan><tspan class="cls-7" x="186.66" y="0">Health</tspan><tspan class="cls-8" x="302.1" y="0"> </tspan><tspan class="cls-9"><tspan x="0" y="36">Services</tspan><tspan class="cls-10" x="152.55" y="36"> </tspan><tspan class="cls-11" x="163.58" y="36">Authority</tspan></tspan></text><text class="cls-12" transform="translate(153.5 111.13)">P<tspan class="cls-13" x="15.88" y="0">r</tspan><tspan x="24.28" y="0">ovince-wide solutions.</tspan><tspan x="0" y="27" xml:space="preserve">  Better health.</tspan></text></g></g></svg>