<svg xmlns="http://www.w3.org/2000/svg" viewBox="0 0 212.04 77.05"><defs><style>.cls-1{fill:#fff;}</style></defs><title>providence</title><g id="Layer_2" data-name="Layer 2"><g id="Layer_1-2" data-name="Layer 1"><path class="cls-1" d="M72.41,36.69c.68,0,1.06.3,1.06,1A3.44,3.44,0,0,1,73.09,39a22.27,22.27,0,0,0-1.23,3.39c-.11.64-.54.76-.8.34a1.68,1.68,0,0,0-1.27-.88c-2.3,0-3.74,3.77-4.44,6.4-.43,1.44-.79,3-.95,3.77a2.46,2.46,0,0,1-1.06,1.57,21,21,0,0,1-4,1.82c-.4,0-.57-.13-.21-.55a10.73,10.73,0,0,0,1-3.26A62.28,62.28,0,0,0,61,43.86c.09-2.2-.12-2.76-.5-2.63a6.45,6.45,0,0,0-2.41,1.4c-.52.42-.56.21-.47-.13a3.83,3.83,0,0,1,1-1.69c.9-.85,4.8-4.08,6.23-4.08.64,0,1,1.15,1,2.5a38.43,38.43,0,0,1-.26,4.16c-.05.51.21.51.47,0a33.17,33.17,0,0,1,2.32-3.86c1.2-1.69,2.76-2.88,4.08-2.88h0"/><path class="cls-1" d="M86,36.69c2.57,0,4.32,2.46,4.32,6,0,3.86-1.27,6.7-3.9,8.73-1.82,1.41-6.07,3.78-7.89,3.78-3.47,0-4.89-2.33-4.89-6.06a11.88,11.88,0,0,1,2.18-7c1-1.57,3.42-2.88,5-3.6.45-.25.88-.55,1.3-.77a9.53,9.53,0,0,1,3.78-1.1h0m-3.73,2.5a2.11,2.11,0,0,0-1.49.72c-1.18,1.15-2.25,3.52-2.25,7.6,0,3.77,1.87,5,3.31,5a3,3,0,0,0,2.36-1.53,13.36,13.36,0,0,0,1.47-6.83c0-3.22-1.63-4.92-3.36-4.92Z"/><path class="cls-1" d="M109.11,39.23c0,3.18-3.07,7.56-7,12.05a16.08,16.08,0,0,0-1.23,1.61,1.84,1.84,0,0,1-.7.76c-.48.39-2.6,1.4-3,1.66-.26,0-.42-.05-.31-.59a6.66,6.66,0,0,0,.26-2c0-3.48-.52-8.52-1.44-10.47C95.2,41.15,95,41,94.56,41.1c-.76.22-1.44,1.19-2.18,2.12-.37.47-.49.3-.44-.17a3.27,3.27,0,0,1,.66-1.9,13.19,13.19,0,0,1,2-1.79,5.56,5.56,0,0,0,.92-.89,6,6,0,0,1,2.88-1.74c.9,0,1.61,1.45,2,3.78a58.49,58.49,0,0,1,.85,8.78c0,.63.26.51.57.17,3.25-3.52,3.94-6.2,3.94-8.14a2.2,2.2,0,0,0-1-1.87c-.24-.12-.16-.47,0-.63a6.18,6.18,0,0,1,3.09-2.13c.81,0,1.23.93,1.23,2.5v0"/><path class="cls-1" d="M118,50.78c1,0,2.2-1.58,3-2.55.38-.47.43-.26.43,0a4.78,4.78,0,0,1-.55,2c-1,1.57-5.31,5-7.41,5-.9,0-1.33-1.82-1-4.54.22-1.65.74-5.34,1.37-8.69.07-.29,0-.51-.47-.34l-2.5,1c-.52.18-.59.13-.43-.21a3.75,3.75,0,0,1,1.14-1.44c1.48-.93,3.65-2.11,6-3.6a7.21,7.21,0,0,1,1.86-.64c.38,0,.47.13.22.51a9.59,9.59,0,0,0-1.09,2.92,47.2,47.2,0,0,0-1.23,8.23c-.14,1.74.19,2.43.54,2.43H118m4.29-21.42c-1,.85-1.13,2.63-.91,3.94,0,.26,0,.34-.48.42a4,4,0,0,1-2.5-.42,2.46,2.46,0,0,1-.9-2.25,2.16,2.16,0,0,1,1.06-2,6.33,6.33,0,0,1,3.57-.39C122.66,28.76,122.83,28.93,122.3,29.36Z"/><path class="cls-1" d="M136.48,34c1.28-7.55,2.48-10.32,6.87-13.84A12.29,12.29,0,0,1,151,17.51c3.24,0,4.61,1.41,4.7,4,0,.43-.09.64-.35.34-1.51-1.68-2.76-2.21-5.43-2.21-7.61,0-8.27,4.77-9.22,14.94-.32,3.61-.84,8.44-1.22,12.17a19.79,19.79,0,0,1-.92,5c-.19.33,0,.38.16.38a6.6,6.6,0,0,0,3.36-1.65c.28-.3.28,0,.21.2a6.29,6.29,0,0,1-.78,1.45c-1.61,1.91-5.77,3.35-8.31,4.28-.45.13-.43-.25-.29-.42a13.34,13.34,0,0,0,1.28-4.2c.11-.85.33-2,.42-2.59s-.09-.93-.42-.38a22.89,22.89,0,0,1-4.89,4.75,8,8,0,0,1-3.81,1.61c-.94,0-2.43-1.1-2.43-4.92a13.25,13.25,0,0,1,2.76-8.18,28.08,28.08,0,0,1,5.08-4,8.24,8.24,0,0,1,3.45-1.27,2.17,2.17,0,0,1,1.61.63c.16-1.19.38-2.24.54-3.39m-3.21,5c-3.64,0-4.54,3.31-4.84,6.11-.38,1.57-.38,3.86.42,4.88.52,1.31,1.75.88,2.51.12a15.09,15.09,0,0,0,3.44-6.44,15.56,15.56,0,0,0,.81-4.11,8.12,8.12,0,0,0-2.29-.56Z"/><path class="cls-1" d="M177.2,36.69c.75,0,1.49,1.32,1.27,4.16-.16,1.7-1,7.63-1.44,9.33-.12.5.1.63.38.5A7.12,7.12,0,0,0,180,48.74c.33-.39.38-.26.33.21a5.82,5.82,0,0,1-.71,1.95,13.63,13.63,0,0,1-5.38,3.69,10.78,10.78,0,0,1-2.86.8c-.38,0-.54-.17-.12-.76a9,9,0,0,0,1.11-3,58.22,58.22,0,0,0,1.23-8.82c0-1.44-.31-2-.8-2-1.23,0-3.28,2.16-4.75,5.51A33.77,33.77,0,0,0,166.1,52a2.53,2.53,0,0,1-.85,1.22,11.5,11.5,0,0,1-4.07,2c-.3,0-.4-.13-.18-.47a9.83,9.83,0,0,0,1-3.31,57.27,57.27,0,0,0,1.2-9.07c0-.89-.21-1.4-.47-1.23a14.23,14.23,0,0,0-2.17,1.4c-.59.42-.66.3-.45-.21a4,4,0,0,1,1.09-1.79c1.11-1,4.89-3.77,6.23-3.77.52,0,.79,1.45.69,2.76a27.46,27.46,0,0,1-.26,3.18c-.07.5.09.76.36.42a22,22,0,0,1,5.12-4.91,7.57,7.57,0,0,1,3.8-1.45h0"/><path class="cls-1" d="M194.3,36.78a2.15,2.15,0,0,1,1.89,1,1.57,1.57,0,0,1,0,1.53,15.19,15.19,0,0,0-1.27,2.16c-.17.51-.57.6-.73.17A3.13,3.13,0,0,0,191,39.54a2.67,2.67,0,0,0-2.22,1.27c-.8,1-1.35,3.52-1.35,5.81,0,3.9,1.4,5.21,3.27,5.21,1.53,0,3.51-.93,5.29-3.14.3-.38.39-.3.39.05a4.49,4.49,0,0,1-.78,1.94,12.8,12.8,0,0,1-5,3.69,9.34,9.34,0,0,1-3.73.77c-2.08,0-4.27-1.44-4.27-5.68a11.78,11.78,0,0,1,2.72-7.63,17.93,17.93,0,0,1,4.27-3.27,9.48,9.48,0,0,1,4.63-1.78h.05"/><path class="cls-1" d="M155.82,36.73c1.06,0,2.23,1,2.23,2.81s-1,3-3,4.4a20,20,0,0,1-5.22,2.46c-.43.09-.5.3-.5.51a5.23,5.23,0,0,0,0,.81c0,2.8,1.39,4.2,3.18,4.2a7.07,7.07,0,0,0,5.13-2.59c.47-.47.59-.47.59-.09a3,3,0,0,1-.68,1.79,12.82,12.82,0,0,1-8.82,4.06c-2.64,0-4-2.37-4-5.17,0-1.6.15-7,4-10.13,1.45-1.15,5.25-3.06,7.09-3.06h0m-3.33,2.21c-1.67,0-2.92,3-3.14,5.51,0,.43.12.51.55.43,2-.34,4.48-1.45,4.48-3.44,0-1.4-.59-2.5-1.86-2.5Z"/><path class="cls-1" d="M209.66,36.73c1.06,0,2.22,1,2.22,2.81s-1,3-3,4.4a20.16,20.16,0,0,1-5.22,2.46c-.43.09-.5.3-.5.51a5.23,5.23,0,0,0,0,.81c0,2.8,1.39,4.2,3.19,4.2a7.06,7.06,0,0,0,5.12-2.59c.48-.47.59-.47.59-.09a3,3,0,0,1-.68,1.79,12.8,12.8,0,0,1-8.81,4.06c-2.65,0-4-2.37-4-5.17,0-1.6.16-7,4-10.13,1.44-1.15,5.24-3.06,7.08-3.06h0m-3.33,2.21c-1.68,0-2.93,3-3.15,5.51,0,.43.12.51.55.43,2-.34,4.49-1.45,4.49-3.44,0-1.4-.59-2.5-1.87-2.5Z"/><path class="cls-1" d="M61.35,5h-.07C49.6,5,38.47,9.51,34.63,14.28a6.76,6.76,0,0,0-1.77,5.62c.12.7.44.89.74,0a18.78,18.78,0,0,1,8.63-8.78c5.3-2.72,11.82-3.36,15.18-3.36,8.59,0,14,2.65,14,10.08,0,6.65-6.64,10.21-18.55,11h-3c-1.62.11-3.33.16-5.14.17a15.73,15.73,0,0,1-3.1-.26c-.64-.19-.58.13-.19.58a3.81,3.81,0,0,0,3,1.94c.49,0,2.5.14,5.28,0h3c4.87-.18,12.09-1.12,17.44-4.87,4-2.78,6.26-6.2,6.26-11C76.33,9.24,71.81,5,61.35,5Z"/><path class="cls-1" d="M67.62.44A6.28,6.28,0,0,0,63.76.19a17,17,0,0,0-6.55,4.12C47.09,14.69,49.1,24.14,48,40.35,47.43,56.59,36,63.55,24.65,63.51c-10.27,0-19.07-6.21-21.92-15.67v-.07a0,0,0,0,1,0,0c-.45-1.35-.82-2.67-1-3.59a6.66,6.66,0,0,0-1,1A2.51,2.51,0,0,0,0,47,25.56,25.56,0,0,0,24.65,67.41c14.7,0,23.72-10.68,26.82-17.37A31.79,31.79,0,0,0,53.65,40c.12-.56.27-2.37.36-3.54.86-10.94-.59-21.25,3.48-29.76C60,2.66,64.09,1.4,67.56.89,67.92.81,68,.72,67.62.44Z"/><path class="cls-1" d="M65,71.1V67.65c0-.35.13-.41.41-.44s1.28,0,1.83-.06c0,.58,0,1.5,0,2.78v5c0,1.08,0,1.59,0,1.9a16,16,0,0,1-1.87.12c-.25,0-.37,0-.37-.31V72.48c-.31,0-.8,0-1.54,0H61.32v3.89c0,.34-.14.4-.52.43s-1.4.08-1.72.06c0-.62,0-1.52,0-2.8V69.24c0-1,0-1.68,0-2,.47-.07,1.54-.12,1.89-.12s.35.17.35.84V71.1Z"/><path class="cls-1" d="M75.73,69.36c0-.74,0-1.26,0-1.93a11.72,11.72,0,0,1,2-.22h3.66a2.23,2.23,0,0,1-.51,1.35,6.68,6.68,0,0,1-1.55.09H77.92v2.49h3.25c-.16,1.19-.5,1.45-1,1.45h-2.2v2.78a7,7,0,0,0,1.23.09c.59,0,1.79,0,2.59-.06l0,0a1.92,1.92,0,0,1-.88,1.4,16.24,16.24,0,0,1-2.2.08A18.23,18.23,0,0,1,76,76.76l-.24-.31Z"/><path class="cls-1" d="M91.54,74.34c-.27.74-.7,1.88-.89,2.34-.06.15-.18.23-.46.23a7.23,7.23,0,0,1-1.55-.2l0-.06c.77-1.88,3.09-7.54,3.71-9l-.09-.27a13.15,13.15,0,0,1,1.87-.2.41.41,0,0,1,.37.29c.71,1.72,1.8,4.61,2.29,5.92.63,1.64,1,2.6,1.32,3.3v.07a12.65,12.65,0,0,1-2,.18c-.26,0-.4-.08-.55-.51-.26-.77-.47-1.34-.73-2.06Zm2.88-1.43c-.63-1.83-1-2.9-1.22-3.38-.3.91-.72,2.11-1.19,3.38Z"/><path class="cls-1" d="M105.73,69.25c0-1,0-1.66,0-2,.37,0,1.21-.12,1.89-.12.31,0,.35.17.35.94v7.27a5.59,5.59,0,0,0,1.23.1c.6,0,1.54,0,2.34-.07l0,0a2,2,0,0,1-.85,1.41,12.78,12.78,0,0,1-2,.08,18.71,18.71,0,0,1-2.69-.15l-.25-.31Z"/><path class="cls-1" d="M119.83,68.65h-2.68c-.27,0-.4-.12-.27-.52a2.59,2.59,0,0,1,.54-1,11.52,11.52,0,0,0,2.18.08h5.61c-.09,1-.55,1.37-.91,1.44H122v6.26c0,1.06,0,1.57,0,1.88a13.52,13.52,0,0,1-1.87.12c-.25,0-.37,0-.37-.28Z"/><path class="cls-1" d="M138.61,71.1V67.65c0-.35.14-.41.42-.44s1.28,0,1.83-.06c0,.58-.05,1.5-.05,2.78v5c0,1.08,0,1.59.05,1.9a16.06,16.06,0,0,1-1.88.12c-.24,0-.37,0-.37-.31V72.48c-.3,0-.79,0-1.53,0h-2.14v3.89c0,.34-.14.4-.52.43s-1.4.08-1.72.06c0-.62,0-1.52,0-2.8V69.24c0-1,0-1.68,0-2,.47-.07,1.53-.12,1.89-.12s.35.17.35.84V71.1Z"/><path class="cls-1" d="M166.58,75.17a2.09,2.09,0,0,1-.56,1.35,4.32,4.32,0,0,1-2.19.53c-3.55,0-5.48-2-5.48-4.94,0-3.2,2.45-5.13,5.52-5.13a4.73,4.73,0,0,1,2.85.77c0,.55-.33,1.16-.91,1.09a5,5,0,0,0-1.94-.38c-1.77,0-3.18,1.13-3.18,3.52a3.36,3.36,0,0,0,3.61,3.52,7.5,7.5,0,0,0,2.22-.36Z"/><path class="cls-1" d="M176.48,74.34c-.28.74-.71,1.88-.89,2.34-.07.15-.19.23-.47.23a7.31,7.31,0,0,1-1.55-.2v-.06c.76-1.88,3.09-7.54,3.7-9l-.09-.27a13.15,13.15,0,0,1,1.87-.2.41.41,0,0,1,.37.29c.71,1.72,1.8,4.61,2.29,5.92.63,1.64,1,2.6,1.33,3.3l0,.07a12.54,12.54,0,0,1-2,.18c-.26,0-.4-.08-.55-.51-.26-.77-.46-1.34-.72-2.06Zm2.87-1.43c-.63-1.83-1-2.9-1.21-3.38-.31.91-.73,2.11-1.2,3.38Z"/><path class="cls-1" d="M192.8,76.45c0,.31-.1.37-.37.4-.44,0-1.46.06-1.81.06,0-.62,0-1.52,0-2.81V68.93c0-.75,0-1.12,0-1.54a21.27,21.27,0,0,1,2.79-.27c2.64,0,3.81.9,3.81,2.8a2.78,2.78,0,0,1-1.81,2.41,9.29,9.29,0,0,1,1.3,2,13.82,13.82,0,0,0,1.55,2.38v.06a4.17,4.17,0,0,1-1.4.17,1.57,1.57,0,0,1-1.45-.65,13.67,13.67,0,0,1-1.34-2.44c-.42-.83-.73-.89-1.06-.89a.81.81,0,0,0-.22,0Zm0-4.74a4.07,4.07,0,0,0,1.39-.1,1.62,1.62,0,0,0,.79-1.5,1.54,1.54,0,0,0-1.63-1.72,2.46,2.46,0,0,0-.55,0Z"/><path class="cls-1" d="M205.62,69.36c0-.74,0-1.26,0-1.93a11.59,11.59,0,0,1,2-.22h3.66a2.18,2.18,0,0,1-.5,1.35,6.73,6.73,0,0,1-1.56.09h-1.35v2.49h3.24c-.15,1.19-.49,1.45-1,1.45h-2.2v2.78a7,7,0,0,0,1.23.09c.59,0,1.78,0,2.58-.06l0,0a1.91,1.91,0,0,1-.87,1.4,16.35,16.35,0,0,1-2.2.08,18.23,18.23,0,0,1-2.72-.15l-.25-.31Z"/><path class="cls-1" d="M12.64,35a17,17,0,0,0-.12,1.77,22.9,22.9,0,0,0,1,6.34,21.56,21.56,0,0,1,9.76,8.55C23,47.77,21.26,39.29,12.64,35Zm22.78,8.11a22.9,22.9,0,0,0,1-6.34A17,17,0,0,0,36.27,35C27.64,39.29,26,47.78,25.66,51.61A21.51,21.51,0,0,1,35.42,43.06Zm-31,1C9.08,54.27,18.06,56,22.74,55.5,19.28,47.8,12.06,43.27,4.43,44ZM26.17,55.5C30.85,56,39.83,54.27,44.48,44,36.85,43.27,29.63,47.8,26.17,55.5ZM24.46,28.89a24.8,24.8,0,0,0-3.95,9.61,23.06,23.06,0,0,1,3.95,7.64A23.13,23.13,0,0,1,28.4,38.5,25,25,0,0,0,24.46,28.89Z"/></g></g></svg>