<svg xmlns="http://www.w3.org/2000/svg" viewBox="0 0 1062 214.41"><defs><style>.cls-1{fill:#5fe3c4;}.cls-2{fill:#606060;}</style></defs><title>logo-light</title><g id="Layer_2" data-name="Layer 2"><g id="Layer_1-2" data-name="Layer 1"><path class="cls-1" d="M16.12,80.6A53.39,53.39,0,0,0,53.85,96.19c10.45,0,16.83-4.43,16.83-10.1,0-6.73-7.62-9.39-20.2-12C31,70.15,3.72,65.19,3.72,37.2c0-19.84,16.83-37,47.12-37,19,0,35.42,5.67,48,16.47L82.19,38.44a54.89,54.89,0,0,0-33.3-12.22c-10.1,0-14,4.07-14,9.21,0,6.2,7.27,8.32,20.38,10.8,19.48,4.08,46.41,9.75,46.41,36.49,0,23.74-17.54,39.5-49.25,39.5-23.91,0-40.56-7.43-52.43-18.77Z"/><path class="cls-1" d="M115.82,2h30.47V120.1H115.82Z"/><path class="cls-1" d="M271.16,40.39,241.22,120.1H227.76L198,40.39V120.1H167.53V2h42.33l24.62,67,24.8-67h42.34V120.1H271.16Z"/><path class="cls-2" d="M322.84,2h31V71.21c0,14,7.44,24.09,23.92,24.09,16.29,0,23.73-10.1,23.73-24.09V2h31V72.09c0,29.41-16.83,50.13-54.73,50.13s-54.92-20.9-54.92-49.95Z"/><path class="cls-2" d="M453.72,2h30.46V93.53h47.48l-10,26.57H453.72Z"/><path class="cls-2" d="M598.41,36.22,568,120.1H534.82L579.28,2h38.27L662.18,120.1H629.06Z"/><path class="cls-2" d="M686.24,28.52H653.12V2h96.54V28.52H716.71V120.1H686.24Z"/><path class="cls-2" d="M764.16,2h30.47V120.1H764.16Z"/><path class="cls-2" d="M873.09,0c36.13,0,63.06,25.15,63.06,61.11s-26.93,61.11-63.06,61.11-63.24-25.15-63.24-61.11S837,0,873.09,0Zm0,26.93c-19.67,0-32.24,14.88-32.24,34.18,0,19.13,12.57,34.19,32.24,34.19,19.48,0,32.06-15.06,32.06-34.19C905.15,41.81,892.57,26.93,873.09,26.93Z"/><path class="cls-2" d="M982,48.71V120.1H951.53V2h31.35l47.82,68V2h30.65V120.1H1032Z"/><path class="cls-2" d="M.88,149.49H41.31v5h-35v23.61H40.64v5H6.33v30.21H.88Z"/><path class="cls-2" d="M72.46,154.85,49.14,213.26H43l26.1-63.77h6.79L102,213.26H95.89Z"/><path class="cls-2" d="M105.24,181.42c0-19.59,14.24-33,32.12-33a28.87,28.87,0,0,1,23.42,11.28l-4.59,3a23.25,23.25,0,0,0-18.83-9.28c-14.82,0-26.39,11.38-26.39,28,0,16.45,11.57,28,26.39,28a23.24,23.24,0,0,0,18.83-9.27l4.59,2.87c-5.64,7-13.1,11.38-23.42,11.38C119.48,214.41,105.24,201,105.24,181.42Z"/><path class="cls-2" d="M171.85,149.49h5.45v63.77h-5.45Z"/><path class="cls-2" d="M193.16,149.49h5.45v58.8h30.88v5H193.16Z"/><path class="cls-2" d="M241.33,149.49h5.45v63.77h-5.45Z"/><path class="cls-2" d="M278.89,154.47H258.05v-5h47.23v5H284.44v58.79h-5.55Z"/><path class="cls-2" d="M332.89,154.85l-23.32,58.41h-6.12l26.1-63.77h6.79l26.09,63.77h-6.11Z"/><path class="cls-2" d="M381.44,154.47H360.6v-5h47.23v5H387v58.79h-5.55Z"/><path class="cls-2" d="M419.09,149.49h5.45v63.77h-5.45Z"/><path class="cls-2" d="M469,148.44c18.64,0,31,14.34,31,33s-12.33,33-31,33-31-14.34-31-33S450.25,148.44,469,148.44Zm0,5c-15.49,0-25.24,11.76-25.24,28,0,16.07,9.75,28,25.24,28,15.3,0,25.24-11.94,25.24-28C494.23,165.17,484.29,153.41,469,153.41Z"/><path class="cls-2" d="M518.87,158.19v55.07h-5.45V149.49H519l40,54.3v-54.3h5.44v63.77H559Z"/><path class="cls-2" d="M605,149.49h23.9c12.24,0,19.22,8.61,19.22,18.65s-7.07,18.64-19.22,18.64H610.43v26.48H605Zm23.33,5H610.43v27.34H628.3c8.41,0,14.05-5.64,14.05-13.67S636.71,154.47,628.3,154.47Z"/><path class="cls-2" d="M674.94,154.85l-23.33,58.41h-6.12l26.1-63.77h6.79l26.1,63.77h-6.12Z"/><path class="cls-2" d="M723.49,154.47H702.65v-5h47.22v5H729v58.79h-5.54Z"/><path class="cls-2" d="M807,183H766.59v30.31h-5.45V149.49h5.45V178H807V149.49h5.54v63.77H807Z"/><path class="cls-2" d="M861.88,158.48l-15.3,54.78h-6.11L822.2,149.49h6.12l15.4,56.12,15.67-56.12h5L880,205.61l15.39-56.12h6.12l-18.17,63.77h-6.12Z"/><path class="cls-2" d="M929.44,154.85l-23.32,58.41H900l26.1-63.77h6.78L959,213.26h-6.12Z"/><path class="cls-2" d="M981.24,186l-25.33-36.52h6.59L984,180.85l21.51-31.36h6.6L986.79,186v27.25h-5.55Z"/><path class="cls-2" d="M1019.56,200.16a26,26,0,0,0,19.89,9.27c13.09,0,16.82-7.26,16.82-12.71,0-9-8.51-11.47-17.5-13.86-10-2.77-20.74-5.64-20.74-17.4,0-10.42,9.37-17,20.94-17,9.55,0,16.63,3.35,21.6,9l-3.63,4c-4.59-5.54-11.09-8-18.26-8-8.51,0-14.91,4.88-14.91,11.76,0,7.55,7.93,9.75,16.63,12.05,10.32,3,21.6,6.21,21.6,19.12,0,8.22-5.44,18.07-22.65,18.07-10.52,0-18.45-4.21-23.33-10.14Z"/></g></g></svg>