<svg xmlns="http://www.w3.org/2000/svg" viewBox="0 0 1061.35 122.22"><defs><style>.cls-1{fill:#5fe3c4;}.cls-2{fill:#fff;}</style></defs><title>simulation-hero</title><g id="Layer_2" data-name="Layer 2"><g id="Layer_1-2" data-name="Layer 1"><path class="cls-1" d="M16.12,80.6A53.39,53.39,0,0,0,53.85,96.19c10.45,0,16.83-4.43,16.83-10.1,0-6.73-7.62-9.39-20.2-12C31,70.15,3.72,65.19,3.72,37.2c0-19.84,16.83-37,47.12-37,19,0,35.42,5.67,48,16.47L82.19,38.44a54.89,54.89,0,0,0-33.3-12.22c-10.1,0-14,4.07-14,9.21,0,6.2,7.27,8.32,20.38,10.8,19.48,4.08,46.41,9.75,46.41,36.49,0,23.74-17.54,39.5-49.25,39.5-23.91,0-40.56-7.43-52.43-18.77Z"/><path class="cls-1" d="M115.82,2h30.47V120.1H115.82Z"/><path class="cls-1" d="M271.16,40.39,241.22,120.1H227.76L198,40.39V120.1H167.53V2h42.33l24.62,67,24.8-67h42.34V120.1H271.16Z"/><path class="cls-2" d="M322.84,2h31V71.21c0,14,7.44,24.09,23.92,24.09,16.29,0,23.73-10.1,23.73-24.09V2h31V72.09c0,29.41-16.83,50.13-54.73,50.13s-54.92-20.9-54.92-49.95Z"/><path class="cls-2" d="M453.72,2h30.46V93.53h47.48l-10,26.57H453.72Z"/><path class="cls-2" d="M598.41,36.22,568,120.1H534.82L579.28,2h38.27L662.18,120.1H629.06Z"/><path class="cls-2" d="M686.24,28.52H653.12V2h96.54V28.52H716.71V120.1H686.24Z"/><path class="cls-2" d="M764.16,2h30.47V120.1H764.16Z"/><path class="cls-2" d="M873.09,0c36.13,0,63.06,25.15,63.06,61.11s-26.93,61.11-63.06,61.11-63.24-25.15-63.24-61.11S837,0,873.09,0Zm0,26.93c-19.67,0-32.24,14.88-32.24,34.18,0,19.13,12.57,34.19,32.24,34.19,19.48,0,32.06-15.06,32.06-34.19C905.15,41.81,892.57,26.93,873.09,26.93Z"/><path class="cls-2" d="M982,48.71V120.1H951.53V2h31.35l47.82,68V2h30.65V120.1H1032Z"/></g></g></svg>