<svg xmlns="http://www.w3.org/2000/svg" viewBox="0 0 322.24 67.5"><defs><style>.cls-1{fill:#fff;}</style></defs><title>ubc</title><g id="Layer_2" data-name="Layer 2"><g id="Layer_1-2" data-name="Layer 1"><path class="cls-1" d="M24.75,25.07l2.64,19.14,8.67-14.49L32.38,45.66l9.35-8.95L36.86,48.52l7.78-5.8C41,52.57,37.87,58.1,24.75,62.59h0C11.63,58.1,8.48,52.57,4.86,42.72l7.78,5.8L7.77,36.71l9.35,8.95L13.44,29.72l8.67,14.49,2.64-19.14Z"/><path class="cls-1" d="M11,18.65c-4,0-6.35-2.12-6.35-5.7V4.4H8v8.42C8,14.89,9.05,16,11,16a2.81,2.81,0,0,0,3.11-3.16V4.4h3.32v8.5c0,3.55-2.48,5.75-6.46,5.75"/><path class="cls-1" d="M23.46,10h1.19c1.61,0,2.49-.6,2.49-1.69s-.77-1.6-2.36-1.6H23.46Zm0,6h1.41c1.28,0,2.81-.33,2.81-1.89s-1.55-2-2.85-2H23.46Zm1.41,2.34h-4.6V4.4h4.67c3.42,0,5.3,1.32,5.3,3.72A3,3,0,0,1,28.32,11a3.33,3.33,0,0,1,2.54,3.31c0,2.68-2.12,4.16-6,4.16"/><path class="cls-1" d="M40.09,18.65c-4.54,0-7.47-2.83-7.47-7.22s3-7.27,7.56-7.27a8.64,8.64,0,0,1,4.31,1l.11.06-.49,2.86-.22-.15a6.3,6.3,0,0,0-3.6-1.18C37.6,6.76,36,8.5,36,11.41S37.65,16,40.34,16a7.34,7.34,0,0,0,3.82-1.17l.22-.13.46,2.66-.1.06a9.46,9.46,0,0,1-4.65,1.19"/><path class="cls-1" d="M0,0V36.61C0,52,8.37,63.13,24.75,67.5,41.13,63.13,49.5,52,49.5,36.61V0ZM24.75,65.56C9.27,61.17,1.88,51,1.88,36.37V1.88H47.63V36.37C47.63,51,40.23,61.17,24.75,65.56Z"/><path class="cls-1" d="M24.75,23.38c3.45,0,3.92,1.4,6.7,1.38s3.24-1.38,6.69-1.38,3.93,1.4,6.7,1.38V21.55c-2.77,0-3.25-1.36-6.7-1.36s-3.92,1.38-6.69,1.36-3.25-1.36-6.7-1.36-3.92,1.38-6.7,1.36-3.24-1.36-6.69-1.36-3.93,1.38-6.7,1.36v3.21c2.77,0,3.25-1.38,6.7-1.38s3.92,1.4,6.69,1.38S21.3,23.38,24.75,23.38Z"/><path class="cls-1" d="M26.94,29.19c1.66.4,2.45,1.16,4.51,1.14,2.77,0,3.24-1.38,6.69-1.38s3.93,1.4,6.7,1.38V27.12c-2.77,0-3.25-1.36-6.7-1.36s-3.92,1.38-6.69,1.36c-2.23,0-3-.87-5-1.22Z"/><path class="cls-1" d="M18.05,30.33c2.06,0,2.85-.74,4.51-1.14L23,25.9c-2,.35-2.74,1.24-5,1.22-2.77,0-3.24-1.36-6.69-1.36s-3.93,1.38-6.7,1.36v3.21c2.77,0,3.25-1.38,6.7-1.38S15.28,30.35,18.05,30.33Z"/><path class="cls-1" d="M27.74,35a12.06,12.06,0,0,0,2.78.86l1.93-3.22a7.57,7.57,0,0,1-1,.06c-1.91,0-2.73-.63-4.17-1Z"/><path class="cls-1" d="M36.57,34.64a10.14,10.14,0,0,1,1.57-.12c3.45,0,3.93,1.4,6.7,1.39V32.69c-2.77,0-3.25-1.36-6.7-1.36q-.44,0-.81,0Z"/><path class="cls-1" d="M12.93,34.64l-.76-3.28q-.37,0-.81,0c-3.45,0-3.93,1.38-6.7,1.36v3.22c2.77,0,3.25-1.39,6.7-1.39A10.14,10.14,0,0,1,12.93,34.64Z"/><path class="cls-1" d="M19,35.85A12.06,12.06,0,0,0,21.76,35l.46-3.34c-1.44.41-2.26,1.05-4.17,1a7.57,7.57,0,0,1-1-.06Z"/><path class="cls-1" d="M79.43,18.42H77V8.2h-3.8V6H83.1l.32,2.16h-4V18.42Z"/><path class="cls-1" d="M98.15,18.42H95.73V13.08H90.4v5.34H88V6h2.4v4.84h5.33V6h2.42V18.42Z"/><path class="cls-1" d="M113,18.42h-8V6h7.79V8.18h-5.39v2.74h4.29l.35,2.14h-4.64v3.22H113v2.14Z"/><path class="cls-1" d="M131.66,18.65c-3.16,0-5-1.89-5-5.07V6H129v7.44c0,2,1,3.09,2.68,3.09s2.7-1.05,2.7-3V6h2.42v7.44c0,3.24-1.93,5.17-5.15,5.17Z"/><path class="cls-1" d="M153.51,18.42h-2.08l-5.89-8.68v8.68h-2.21V6h2.35l5.62,8.31V6h2.21V18.42Z"/><path class="cls-1" d="M162.81,18.42h-2.42V6h2.42V18.42Z"/><path class="cls-1" d="M174.53,18.61h-2.17L167.58,6.34,170,5.81l3.53,9.66L177,6h2.44l-4.91,12.57Z"/><path class="cls-1" d="M192,18.42H184V6h7.79V8.18H186.4v2.74h4.29l.35,2.14H186.4v3.22H192v2.14Z"/><path class="cls-1" d="M205.09,18.57l-3.53-4.84h-1.13v4.69H198V6h3.88c2.94,0,4.7,1.44,4.7,3.86a3.51,3.51,0,0,1-2.47,3.5L207.58,18l-2.49.56Zm-4.66-6.77h1.46c1.49,0,2.32-.66,2.32-1.88,0-1.46-1.26-1.77-2.32-1.77h-1.46V11.8Z"/><path class="cls-1" d="M216.39,18.58a10.92,10.92,0,0,1-4.2-.92l-.1,0,.36-2.21.15.08a9.17,9.17,0,0,0,3.89,1.07c1.36,0,2.24-.61,2.24-1.53s-.57-1.28-2.31-1.87c-2.59-.91-3.91-1.73-3.91-3.68,0-2.13,1.73-3.62,4.19-3.62a8.93,8.93,0,0,1,3.57.73l.08,0L220,8.89l-.15-.08a7,7,0,0,0-3.22-.89c-1.08,0-1.89.56-1.89,1.3s.56,1.14,2.48,1.8c2.43.85,3.75,1.7,3.75,3.76,0,2.27-1.84,3.8-4.58,3.8Z"/><path class="cls-1" d="M229.38,18.42H227V6h2.43V18.42Z"/><path class="cls-1" d="M240.28,18.42h-2.42V8.2h-3.81V6h9.89l.33,2.16h-4V18.42Z"/><path class="cls-1" d="M253.22,18.42H250.8V13.64l-4.43-7.3,2.46-.53L252,11.44,255.15,6h2.66l-4.59,7.57v4.81Z"/><path class="cls-1" d="M79.17,43.4c-3,0-6-2.2-6-6.41s3-6.43,6-6.43S85.1,32.75,85.1,37s-3,6.43-5.93,6.43Zm0-10.76c-2.1,0-3.52,1.74-3.52,4.33s1.48,4.37,3.52,4.37,3.49-1.75,3.49-4.35-1.47-4.35-3.49-4.35Z"/><path class="cls-1" d="M93.06,43.17H90.67V30.79h7.59v2.14h-5.2v2.93h4.08L97.49,38H93.06v5.17Z"/><path class="cls-1" d="M115.42,43.17h-4.07V30.79h4.05c2.61,0,4.16,1.2,4.16,3.21A2.75,2.75,0,0,1,118,36.61a2.86,2.86,0,0,1,2.1,2.87c0,2.37-1.67,3.69-4.7,3.69Zm-1.76-2h1.79c1.6,0,2.38-.55,2.38-1.67s-.79-1.79-2.36-1.79h-1.81v3.46Zm0-5.43h1.57c1.38,0,2.08-.51,2.08-1.53,0-.58-.21-1.36-2-1.36h-1.64v2.89Z"/><path class="cls-1" d="M133,43.32l-3.52-4.84h-1.13v4.69H126V30.79h3.88c2.94,0,4.69,1.44,4.69,3.86a3.51,3.51,0,0,1-2.46,3.5l3.43,4.61-2.49.56Zm-4.65-6.77h1.46c1.49,0,2.31-.66,2.31-1.88,0-1.46-1.26-1.77-2.31-1.77h-1.46v3.65Z"/><path class="cls-1" d="M143.24,43.17h-2.43V30.79h2.43V43.17Z"/><path class="cls-1" d="M154.15,43.17h-2.42V33h-3.8V30.79h9.89l.32,2.16h-4V43.17Z"/><path class="cls-1" d="M165,43.17h-2.42V30.79H165V43.17Z"/><path class="cls-1" d="M175,43.33a11,11,0,0,1-4.21-.92l-.09,0,.35-2.21.15.08a9.21,9.21,0,0,0,3.89,1.07c1.36,0,2.25-.61,2.25-1.53s-.58-1.28-2.32-1.87c-2.58-.91-3.91-1.73-3.91-3.68,0-2.13,1.73-3.62,4.2-3.62a8.88,8.88,0,0,1,3.56.73l.09,0-.35,2.25-.15-.08a7,7,0,0,0-3.23-.89c-1.07,0-1.88.56-1.88,1.3s.55,1.14,2.47,1.8c2.43.85,3.74,1.7,3.74,3.76,0,2.27-1.83,3.8-4.56,3.8Z"/><path class="cls-1" d="M195,43.17h-2.42V37.83h-5.32v5.34h-2.4V30.79h2.4v4.83h5.32V30.79H195V43.17Z"/><path class="cls-1" d="M213.56,43.4c-3.57,0-6-2.56-6-6.39s2.39-6.45,6-6.45a6.24,6.24,0,0,1,3.56,1l.07,0-.39,2.26-.16-.12a4.85,4.85,0,0,0-3-1.07c-2.23,0-3.56,1.64-3.56,4.37s1.38,4.37,3.61,4.37a5.6,5.6,0,0,0,3.2-1.1l.16-.11.34,2.11-.07,0a6.86,6.86,0,0,1-3.75,1.1Z"/><path class="cls-1" d="M227.78,43.4c-3,0-6-2.2-6-6.41s3-6.43,6-6.43,5.93,2.19,5.93,6.41-3,6.43-5.93,6.43Zm0-10.76c-2.1,0-3.52,1.74-3.52,4.33s1.48,4.37,3.52,4.37,3.49-1.75,3.49-4.35-1.47-4.35-3.49-4.35Z"/><path class="cls-1" d="M246.33,43.17H239V30.79h2.4V41.05H246l.34,2.12Z"/><path class="cls-1" d="M255.65,43.4c-3.16,0-5.05-1.89-5.05-5.07V30.79H253v7.44c0,2,.94,3.09,2.67,3.09s2.69-1,2.69-3V30.79h2.43v7.44c0,3.24-1.92,5.17-5.14,5.17Z"/><path class="cls-1" d="M275.15,43.21h-2.32l-3.3-9.38-.69,9.34h-2.2l1-12.38h3.26l3.24,9.48,3.28-9.48h3.19l1,12.38h-2.4l-.71-9.34-3.31,9.38Z"/><path class="cls-1" d="M292.12,43.17h-4.07V30.79h4c2.61,0,4.17,1.2,4.17,3.21a2.77,2.77,0,0,1-1.54,2.61,2.86,2.86,0,0,1,2.09,2.87c0,2.37-1.67,3.69-4.69,3.69Zm-1.77-2h1.79c1.6,0,2.39-.55,2.39-1.67s-.8-1.79-2.37-1.79h-1.81v3.46Zm0-5.43h1.58c1.37,0,2.07-.51,2.07-1.53,0-.58-.2-1.36-2-1.36h-1.65v2.89Z"/><path class="cls-1" d="M305.31,43.17h-2.43V30.79h2.43V43.17Z"/><path class="cls-1" d="M319.87,43.4l-1.2-3.27h-5.19l-1.12,3H310l4.88-12.52h2.57l4.81,12.22-2.37.53ZM314.27,38h3.59c-.22-.63-1.12-3.06-1.79-4.85L314.27,38Z"/></g></g></svg>