<svg xmlns="http://www.w3.org/2000/svg" viewBox="0 0 130.17 36.04"><defs><style>.cls-1{fill:#fff;}</style></defs><title>vch</title><g id="Layer_2" data-name="Layer 2"><g id="content"><path class="cls-1" d="M8.34,34.43a.66.66,0,0,1,.1.3c0,.34-1.35,1.27-3.3,1.27C1.67,36,0,33.73,0,29c0-4.57,1.71-7.25,5.14-7.25,1.49,0,3.26,1.09,3.26,1.47a.44.44,0,0,1-.1.3L7.57,24.6c-.08.12-.16.2-.24.2-.34,0-1-.94-2-.94-1.71,0-2.46,1.18-2.46,4.59s.42,5.4,2.46,5.4c1.12,0,1.83-.73,2.23-.73.08,0,.14.06.22.2Z"/><path class="cls-1" d="M14.54,33.81c-1.56,0-1.83-1.59-1.83-3.67s.29-3.66,1.83-3.66,1.84,1.58,1.84,3.66S16.11,33.81,14.54,33.81Zm4.85-3.67c0-3.59-1.85-5.9-4.85-5.9S9.7,26.55,9.7,30.14,11.53,36,14.54,36,19.39,33.74,19.39,30.14Z"/><path class="cls-1" d="M27,33.11a2.44,2.44,0,0,1-1.68.85,1.45,1.45,0,0,1-1.47-1.52c0-2,2.59-1.78,3.15-1.78ZM30,35.26c.11,0,.2-.11.2-.2a7.23,7.23,0,0,1-.58-2.91V27.84c0-2.32-1-3.6-3.84-3.6-1.73,0-3.94.54-3.94,1.05a.68.68,0,0,0,.07.27l.45,1.36c0,.09.11.23.22.23a11.32,11.32,0,0,1,2.77-.67c1.41,0,1.59.65,1.59,1.65v.69c-1.77,0-5.83,0-5.83,3.78A3.16,3.16,0,0,0,24.49,36a3.7,3.7,0,0,0,2.9-1.34c.11.56.45,1.34.65,1.34a1.61,1.61,0,0,0,.29-.09Z"/><path class="cls-1" d="M39,26.86a.44.44,0,0,1-.18.2,6.86,6.86,0,0,0-2.59-.58c-.85,0-1.48.31-1.48,1.07,0,1.21,2,1.12,3.6,2.17a3.11,3.11,0,0,1,1.5,2.72A3.52,3.52,0,0,1,36,36c-1.66,0-4.2-.85-4.2-1.45,0-.07.09-.2.11-.29L32.44,33c.05-.11.09-.2.18-.2a9.06,9.06,0,0,0,3.19,1c.74,0,1.37-.32,1.37-1.12,0-1.3-2.19-1.3-3.67-2.28a2.89,2.89,0,0,1-1.31-2.52,3.66,3.66,0,0,1,3.95-3.65c1.36,0,3.48.58,3.48,1.1a.81.81,0,0,1-.11.29Z"/><path class="cls-1" d="M48.8,35l-.45-1.83a.17.17,0,0,0-.18-.13,7.67,7.67,0,0,1-1.77.42c-.75,0-.75-.65-.75-1.36V26.7h2.21c.26,0,.33,0,.4-.33l.29-1.32a.73.73,0,0,0,0-.18c0-.25-.18-.25-.38-.25H45.65V22a.27.27,0,0,0-.27-.26h-2.3a.27.27,0,0,0-.27.26v2.64H41.22c-.27,0-.31.07-.31.32v1.45c0,.24,0,.31.31.31h1.59v5c0,2.05,0,4.31,2.88,4.31,1.52,0,3.15-.42,3.15-.85C48.84,35.12,48.82,35.12,48.8,35Z"/><path class="cls-1" d="M55.63,33.11A2.43,2.43,0,0,1,54,34a1.46,1.46,0,0,1-1.48-1.52c0-2,2.59-1.78,3.15-1.78Zm3.06,2.15c.11,0,.2-.11.2-.2a7.23,7.23,0,0,1-.58-2.91V27.84c0-2.32-1.05-3.6-3.84-3.6-1.72,0-3.93.54-3.93,1.05a.66.66,0,0,0,.06.27l.45,1.36c0,.09.11.23.22.23A11.45,11.45,0,0,1,54,26.48c1.41,0,1.59.65,1.59,1.65v.69c-1.76,0-5.83,0-5.83,3.78A3.17,3.17,0,0,0,53.15,36a3.72,3.72,0,0,0,2.91-1.34c.11.56.44,1.34.64,1.34A1.61,1.61,0,0,0,57,36Z"/><path class="cls-1" d="M66,35.24,65.6,33.4a.17.17,0,0,0-.18-.13,3.73,3.73,0,0,1-.87.2c-.63,0-.63-.62-.63-1.34V22a.27.27,0,0,0-.27-.26h-2.3a.27.27,0,0,0-.27.26v9.75c0,2.05,0,4.31,2.75,4.31,1.07,0,2.26-.31,2.26-.63C66.09,35.35,66.07,35.35,66,35.24Z"/><path class="cls-1" d="M76.86,15.06C90.25,10.33,92.7.12,98.43,0c2.08,0,3.81.84,6.48,1.86,5.81-2.66,14.28,8.92,20.1,10.26-1,.89-10.16-5.24-14.71-7.5s-6.31.88-7,2c-.25.4-1.38,2.05-2.57,1.56C99.14,7.52,99.23,3.71,99,3.61S95.82,7,95.13,7.72c-.31.31-.88.84-1.26.76C93,8.3,92.83,7,92.12,7.06,92,7.07,84.2,16.67,76.86,15.06Z"/><path class="cls-1" d="M93.14,19.46s10.82-4.05,20.29-4.92c11.68-1.07,15.87.22,16.59,2.39s-1.45,1.88-2.61,1.16a4.44,4.44,0,0,1-1.59-1.59s-3.09-1.73-10.62-1.05A134.55,134.55,0,0,0,93.14,19.46Z"/><path class="cls-1" d="M6.21,18.76c-.06.2-.07.25-.32.25H4.25C4,19,4,19,3.93,18.76L1.39,9.61a1.35,1.35,0,0,1-.07-.31c0-.1.16-.13.27-.16L3,8.9a1.69,1.69,0,0,1,.21,0c.08,0,.16,0,.22.29L4.7,15c.1.46.27,1.54.36,2.2h0c.09-.66.32-1.74.44-2.2l1.4-5.8c.07-.29.14-.29.21-.29a2,2,0,0,1,.22,0l1.27.16c.11,0,.27.06.27.16a1.28,1.28,0,0,1-.07.3Z"/><path class="cls-1" d="M13.72,17a1.83,1.83,0,0,1-1.26.63,1.09,1.09,0,0,1-1.1-1.13c0-1.48,1.94-1.34,2.36-1.34ZM16,18.58c.09,0,.15-.09.15-.15a5.52,5.52,0,0,1-.43-2.18V13c0-1.75-.79-2.7-2.88-2.7-1.29,0-2.95.4-2.95.79a.53.53,0,0,0,0,.2l.34,1c0,.07.08.17.16.17A8.42,8.42,0,0,1,12.53,12c1.05,0,1.19.49,1.19,1.24v.52c-1.32,0-4.37,0-4.37,2.83a2.37,2.37,0,0,0,2.51,2.58,2.81,2.81,0,0,0,2.18-1c.08.42.33,1,.48,1a1.8,1.8,0,0,0,.22-.06Z"/><path class="cls-1" d="M24.64,18.64c0,.19,0,.24-.24.24H22.74c-.2,0-.23-.05-.23-.24V13.49c0-.64-.08-1.41-.94-1.41a2.25,2.25,0,0,0-1.47.69v5.87c0,.19,0,.24-.24.24H18.21c-.2,0-.24-.05-.24-.24V13.59A6.74,6.74,0,0,0,17.65,11c0-.08.07-.15.19-.18l1.27-.42a.92.92,0,0,1,.25,0c.22,0,.35.37.54,1.16a3.58,3.58,0,0,1,2.56-1.16c.92,0,2.18.42,2.18,2.45Z"/><path class="cls-1" d="M32.52,18.11a.49.49,0,0,1,0,.16c0,.41-1.35.89-2.36.89-2.32,0-3.71-1.42-3.71-4.25s1.42-4.59,3.9-4.59c.9,0,2.38.5,2.38,1,0,.05,0,.1-.05.15l-.62,1.09s-.07.08-.12.08S31.27,12,30.4,12c-1.14,0-1.64.88-1.64,2.8s.43,2.7,1.72,2.7c.86,0,1.19-.57,1.49-.57a.14.14,0,0,1,.12.08Z"/><path class="cls-1" d="M37.28,17.49c-1.17,0-1.37-1.19-1.37-2.75S36.12,12,37.28,12s1.37,1.19,1.37,2.75S38.45,17.49,37.28,17.49Zm3.63-2.75c0-2.69-1.39-4.42-3.63-4.42s-3.63,1.73-3.63,4.42,1.37,4.42,3.63,4.42S40.91,17.44,40.91,14.74Z"/><path class="cls-1" d="M48.28,19.11a.65.65,0,0,1-.25.05c-.22,0-.35-.32-.53-1a3.66,3.66,0,0,1-2.57,1c-.92,0-2.17-.42-2.17-2.44V11c0-.24.11-.25.31-.3l1.41-.29.27,0c.1,0,.13.07.13.35V16c0,.63.09,1.4.94,1.4a2.54,2.54,0,0,0,1.47-.52V11c0-.24.12-.25.32-.3L49,10.37s.22,0,.28,0,.12.07.12.35V15.9a6.71,6.71,0,0,0,.32,2.61c0,.08-.07.15-.18.18Z"/><path class="cls-1" d="M55.47,18.81c-.07.18-.09.22-.32.22H53.77c-.23,0-.25,0-.31-.22l-2.67-7.72a2.19,2.19,0,0,1-.08-.28c0-.14.12-.15.37-.19l1.39-.15.27,0c.13,0,.18.17.23.34l1,3.77c.19.67.44,1.81.54,2.43h0a23.55,23.55,0,0,1,.57-2.43l1.14-3.77c0-.19.1-.34.23-.34l.27,0,1.14.15c.25,0,.37.05.37.19a2.19,2.19,0,0,1-.08.28Z"/><path class="cls-1" d="M60.9,13.75c.05-.47.11-1.87,1.42-1.87,1.15,0,1.2,1.19,1.2,1.87ZM65.05,17a.23.23,0,0,0-.19-.14,5.94,5.94,0,0,1-2.12.55c-1.58,0-1.84-1.15-1.84-2.09h4.5c.32,0,.38-.1.38-.42,0-2-.5-4.57-3.34-4.57-2.25,0-3.67,1.84-3.67,4.5,0,3.09,1.54,4.34,3.75,4.34,1.32,0,3-.55,3-1a.37.37,0,0,0,0-.18Z"/><path class="cls-1" d="M69.75,18.64c0,.19,0,.24-.23.24H67.86c-.2,0-.23-.05-.23-.24V13.59a7.23,7.23,0,0,0-.44-2.53c0-.07.07-.12.15-.15l1.28-.52a.86.86,0,0,1,.21-.07c.2,0,.54.75.62,1.32a2.75,2.75,0,0,1,2.08-1.32c.48,0,1,.17,1,.39a.57.57,0,0,1,0,.16L72,12.28c0,.05-.07.15-.14.15a3.18,3.18,0,0,0-.78-.18c-.52,0-1.06.57-1.28.8Z"/><path class="cls-1" d="M77.34,35.23c0,.37-.08.43-.43.43H75c-.35,0-.43-.06-.43-.43V29.55H70.72v5.68c0,.37-.08.43-.43.43H68.4c-.34,0-.43-.06-.43-.43V22.14c0-.36.09-.42.43-.42h1.89c.35,0,.43.06.43.42v5.21h3.87V22.14c0-.36.08-.42.43-.42h1.89c.35,0,.43.06.43.42Z"/><path class="cls-1" d="M82.21,28.82c.07-.62.16-2.5,1.9-2.5,1.54,0,1.61,1.59,1.61,2.5Zm5.54,4.32a.28.28,0,0,0-.24-.18,8.09,8.09,0,0,1-2.84.73c-2.1,0-2.46-1.54-2.46-2.79h6c.43,0,.51-.13.51-.56,0-2.7-.67-6.1-4.46-6.1-3,0-4.9,2.46-4.9,6,0,4.11,2.06,5.79,5,5.79,1.76,0,4-.74,4-1.32a.45.45,0,0,0-.07-.24Z"/><path class="cls-1" d="M96.24,33.11a2.43,2.43,0,0,1-1.67.85,1.46,1.46,0,0,1-1.48-1.52c0-2,2.59-1.78,3.15-1.78Zm3.06,2.15c.11,0,.2-.11.2-.2a7.23,7.23,0,0,1-.58-2.91V27.84c0-2.32-1-3.6-3.84-3.6-1.72,0-3.93.54-3.93,1.05a.66.66,0,0,0,.06.27l.45,1.36c0,.09.11.23.23.23a11.19,11.19,0,0,1,2.77-.67c1.4,0,1.58.65,1.58,1.65v.69c-1.76,0-5.83,0-5.83,3.78A3.17,3.17,0,0,0,93.76,36a3.72,3.72,0,0,0,2.91-1.34c.11.56.44,1.34.64,1.34A1.61,1.61,0,0,0,97.6,36Z"/><path class="cls-1" d="M106.79,35.24l-.45-1.84a.17.17,0,0,0-.18-.13,3.47,3.47,0,0,1-.87.2c-.63,0-.63-.62-.63-1.34V22a.26.26,0,0,0-.26-.26h-2.31a.26.26,0,0,0-.26.26v9.75c0,2.05,0,4.31,2.75,4.31,1.07,0,2.25-.31,2.25-.63C106.83,35.35,106.81,35.35,106.79,35.24Z"/><path class="cls-1" d="M115.16,35l-.44-1.83a.17.17,0,0,0-.18-.13,7.67,7.67,0,0,1-1.77.42c-.76,0-.76-.65-.76-1.36V26.7h2.22c.26,0,.33,0,.4-.33l.29-1.32a.73.73,0,0,0,0-.18c0-.25-.18-.25-.38-.25H112V22a.26.26,0,0,0-.26-.26h-2.3a.27.27,0,0,0-.27.26v2.64h-1.59c-.27,0-.31.07-.31.32v1.45c0,.24,0,.31.31.31h1.59v5c0,2.05,0,4.31,2.88,4.31,1.52,0,3.15-.42,3.15-.85C115.21,35.12,115.19,35.12,115.16,35Z"/><path class="cls-1" d="M122.78,24.24a4.52,4.52,0,0,0-3.08,1.28V22a.27.27,0,0,0-.27-.26h-2.3a.27.27,0,0,0-.27.26V35.35c0,.24,0,.31.32.31h2.21c.27,0,.31-.07.31-.31V27.53a2.85,2.85,0,0,1,1.9-.94c1.14,0,1.25,1,1.25,1.88v6.88c0,.24.05.31.31.31h2.22c.26,0,.31-.07.31-.31V27.77C125.69,25.83,125.15,24.24,122.78,24.24Z"/></g></g></svg>