<svg xmlns="http://www.w3.org/2000/svg" viewBox="0 0 39.58 38.38"><defs><style>.cls-1{fill:#d76160;}.cls-2{fill:none;stroke:#d76160;stroke-miterlimit:10;stroke-width:1.5px;}</style></defs><title>download-audio</title><g id="Layer_2" data-name="Layer 2"><g id="Layer_1-2" data-name="Layer 1"><g id="file-download"><path class="cls-1" d="M11.2,29.58H8v-4.8H3.2v4.8H0l5.6,5.6ZM0,36.78v1.6H11.2v-1.6Z"/></g><path class="cls-2" d="M20.05,27.4a1.7,1.7,0,0,1-2.8,1.31L7.92,21H3a1.71,1.71,0,0,1-1.71-1.71v-6.8A1.72,1.72,0,0,1,3,10.76h5L17.25,3a1.72,1.72,0,0,1,1.82-.23,1.7,1.7,0,0,1,1,1.55v23Zm6.56-2.67h-.12a1.72,1.72,0,0,1-1.21-.5L25.05,24a1.71,1.71,0,0,1-.16-2.23,9.92,9.92,0,0,0-.27-12.16,1.7,1.7,0,0,1,.12-2.28L25,7.11a1.67,1.67,0,0,1,1.29-.5,1.73,1.73,0,0,1,1.24.63,13.66,13.66,0,0,1,.35,16.81A1.66,1.66,0,0,1,26.61,24.73ZM33.67,30a1.74,1.74,0,0,1-1.24.6h-.07a1.66,1.66,0,0,1-1.2-.5l-.23-.22a1.71,1.71,0,0,1-.1-2.31,18.19,18.19,0,0,0-.3-23.77,1.69,1.69,0,0,1,.07-2.33l.22-.23a1.72,1.72,0,0,1,1.26-.5,1.7,1.7,0,0,1,1.23.57A21.94,21.94,0,0,1,33.67,30Z"/></g></g></svg>