<svg xmlns="http://www.w3.org/2000/svg" viewBox="0 0 35.05 45.17"><defs><style>.cls-1{fill:#d76160;}.cls-2{fill:#fff;}</style></defs><title>pdf</title><g id="Layer_2" data-name="Layer 2"><g id="Layer_1-2" data-name="Layer 1"><path class="cls-1" d="M26,9.59h6.57L26,3ZM.25,2.53A2,2,0,0,1,2.17.25h22.6a1.46,1.46,0,0,1,1,.43l.61.6,7.86,7.86.6.6a1.82,1.82,0,0,1,.43,1.39V43.86a1.79,1.79,0,0,1-1.44,1.49l-.11,0a2.33,2.33,0,0,1-.37,0H2.17a2.21,2.21,0,0,1-.37,0l-.12,0A1.79,1.79,0,0,1,.25,43.86V2.53Zm1.92-.72c-.34,0-.36.55-.36.72V30.62H33.74V11.11a1.55,1.55,0,0,1-.31,0h-9v-9a1,1,0,0,1,.05-.3Z" transform="translate(-0.25 -0.25)"/><path class="cls-2" d="M12.35,35.09a2.62,2.62,0,0,0-.87-.47,3.11,3.11,0,0,0-1-.16H8.23V42.3H9.51V39.47h.94a3.35,3.35,0,0,0,1.13-.18,2.64,2.64,0,0,0,.88-.51A2.3,2.3,0,0,0,13,38a2.85,2.85,0,0,0,.2-1.08,2.12,2.12,0,0,0-.24-1A2.52,2.52,0,0,0,12.35,35.09Zm-.48,2.6a1.29,1.29,0,0,1-.31.5,1.17,1.17,0,0,1-.42.26,1.24,1.24,0,0,1-.46.08H9.51V35.42h1a1.76,1.76,0,0,1,.79.16,1.25,1.25,0,0,1,.46.38,1.16,1.16,0,0,1,.22.48,2,2,0,0,1,.06.44A2.39,2.39,0,0,1,11.87,37.69Z" transform="translate(-0.25 -0.25)"/><path class="cls-2" d="M20.07,35.61a3.58,3.58,0,0,0-1.24-.84,4.47,4.47,0,0,0-1.74-.31H14.72V42.3h3l.46,0a4.21,4.21,0,0,0,.68-.17,3.79,3.79,0,0,0,.77-.4,2.64,2.64,0,0,0,.72-.73,4.08,4.08,0,0,0,.53-1.15,5.73,5.73,0,0,0,.21-1.66,3.78,3.78,0,0,0-.25-1.37A3.32,3.32,0,0,0,20.07,35.61Zm-.93,4.93a2.12,2.12,0,0,1-1.87.83H16V35.42h.75a3.94,3.94,0,0,1,1.49.24,2.46,2.46,0,0,1,.91.63,2.13,2.13,0,0,1,.45.87,4,4,0,0,1,.12,1A4.27,4.27,0,0,1,19.14,40.54Z" transform="translate(-0.25 -0.25)"/><polygon class="cls-2" points="22.66 42.05 23.96 42.05 23.96 38.52 27.24 38.52 27.24 37.64 23.96 37.64 23.96 35.17 27.57 35.17 27.57 34.2 22.66 34.2 22.66 42.05"/><path class="cls-1" d="M25.11,18.13a14.64,14.64,0,0,0-2.61.28,24.66,24.66,0,0,1-4-5.89c1-4.38.52-5,.29-5.3s-.59-.81-1-.81a3.81,3.81,0,0,0-.8.13,1.51,1.51,0,0,0-.88,1c-.55,1.28.21,3.48,1,5.17A51.81,51.81,0,0,1,14.2,21C11.25,22.38,9.68,23.71,9.54,25a1.86,1.86,0,0,0,.87,1.74,1.22,1.22,0,0,0,.75.26h0c.68,0,1.37-.52,2.17-1.64A23.27,23.27,0,0,0,15.19,22a37.13,37.13,0,0,1,6.87-2.2,5.18,5.18,0,0,0,3.28,1.78,2.06,2.06,0,0,0,1.73-.93,1.57,1.57,0,0,0,.3-1.68C27.07,18.42,26.33,18.13,25.11,18.13ZM11.18,25.66c-.36-.28-.34-.46-.33-.53,0-.44.72-1.21,2.39-2.14C12,25.32,11.3,25.63,11.18,25.66ZM17.57,7.81s.81.86.07,2.51A1.87,1.87,0,0,1,17.57,7.81ZM16,20.29A55.74,55.74,0,0,0,18,14.4a25.9,25.9,0,0,0,3,4.32A38.38,38.38,0,0,0,16,20.29Zm10-.37a1.15,1.15,0,0,1-.94.34c-.41,0-.57-.24-1.2-.73a10.66,10.66,0,0,1,1.41-.09c.69,0,.82.11.91.16A1.24,1.24,0,0,1,26,19.92Z" transform="translate(-0.25 -0.25)"/></g></g></svg>