<?xml version="1.0" standalone="no"?>
<!DOCTYPE svg PUBLIC "-//W3C//DTD SVG 20010904//EN"
 "http://www.w3.org/TR/2001/REC-SVG-20010904/DTD/svg10.dtd">
<svg version="1.0" xmlns="http://www.w3.org/2000/svg"
 width="1056.000000pt" height="1056.000000pt" viewBox="0 0 1056.000000 1056.000000"
 preserveAspectRatio="xMidYMid meet">
<metadata>
Created by potrace 1.11, written by Peter Selinger 2001-2013
</metadata>
<g transform="translate(0.000000,1056.000000) scale(0.100000,-0.100000)"
fill="#000000" stroke="none">
<path d="M6209 10176 c-2 -2 -58 -6 -124 -10 -66 -3 -134 -8 -150 -10 -17 -3
-59 -7 -95 -10 -36 -4 -78 -8 -95 -11 -16 -2 -50 -7 -75 -10 -25 -3 -56 -7
-70 -10 -14 -3 -41 -8 -60 -11 -53 -8 -82 -13 -110 -19 -14 -3 -38 -8 -55 -11
-72 -13 -219 -48 -350 -84 -61 -17 -162 -49 -220 -70 -33 -12 -64 -23 -70 -24
-10 -3 -42 -15 -100 -39 -16 -6 -32 -12 -35 -13 -12 -2 -49 -19 -255 -115 -27
-12 -67 -33 -87 -46 -21 -13 -38 -20 -38 -17 0 4 -8 0 -17 -8 -10 -8 -45 -30
-78 -48 -133 -75 -361 -238 -485 -347 -227 -200 -449 -466 -582 -698 -81 -141
-211 -426 -196 -431 2 0 -3 -8 -11 -17 -7 -10 -10 -17 -5 -17 5 0 4 -4 -1 -8
-11 -7 -40 -98 -51 -157 -3 -16 -11 -36 -16 -43 -6 -7 -8 -15 -5 -18 3 -3 1
-20 -5 -37 -5 -18 -12 -48 -15 -67 -3 -19 -9 -40 -14 -46 -5 -6 -7 -13 -4 -16
3 -3 -1 -43 -9 -89 -36 -202 -40 -515 -11 -774 11 -96 14 -117 24 -167 6 -29
12 -62 14 -73 1 -11 6 -26 10 -32 5 -7 6 -17 2 -22 -3 -5 -1 -12 4 -15 4 -3 9
-16 9 -28 0 -13 12 -59 26 -103 14 -44 26 -85 26 -92 0 -7 4 -13 8 -13 4 0 8
-8 9 -17 6 -73 242 -514 309 -578 5 -5 28 -32 49 -60 62 -79 150 -172 251
-265 73 -67 201 -170 212 -170 5 0 13 -7 16 -16 3 -8 10 -13 15 -10 5 4 11 2
13 -2 1 -4 26 -23 53 -42 28 -18 52 -36 55 -39 5 -6 15 -12 89 -53 20 -11 41
-24 46 -28 16 -13 303 -163 315 -165 3 0 50 -20 105 -43 55 -24 109 -47 120
-52 11 -4 36 -15 55 -23 19 -8 46 -18 60 -22 27 -7 182 -62 215 -75 11 -5 43
-15 70 -23 28 -9 83 -25 122 -37 40 -12 75 -21 78 -21 2 0 24 -7 47 -15 24 -9
56 -18 71 -20 16 -2 34 -7 40 -11 7 -4 17 -8 22 -9 18 -4 60 -13 80 -18 11 -3
38 -10 60 -16 22 -6 49 -13 60 -15 42 -8 50 -11 63 -18 6 -5 12 -6 12 -4 0 3
17 1 38 -4 20 -5 48 -12 62 -14 14 -3 43 -10 65 -15 54 -13 175 -41 203 -46
12 -2 32 -6 45 -8 29 -6 277 -57 300 -62 42 -10 64 -14 101 -20 22 -3 44 -7
47 -10 4 -2 22 -6 40 -9 19 -3 61 -12 94 -21 33 -8 71 -16 85 -18 74 -12 410
-96 530 -133 30 -10 58 -18 63 -19 4 -1 8 -2 10 -4 1 -1 10 -3 19 -5 104 -20
459 -184 525 -243 14 -12 28 -22 33 -22 16 0 143 -136 168 -180 14 -25 31 -48
37 -52 5 -4 7 -8 3 -8 -4 0 2 -20 12 -44 28 -61 35 -107 34 -221 0 -110 -14
-169 -66 -270 -30 -59 -105 -157 -141 -183 -10 -8 -25 -22 -35 -31 -9 -10 -35
-31 -57 -47 -22 -16 -42 -31 -45 -34 -3 -3 -11 -6 -19 -8 -8 -2 -27 -12 -41
-22 -34 -24 -169 -83 -240 -105 -30 -9 -62 -19 -70 -22 -8 -2 -16 -4 -17 -4
-2 0 -17 -5 -35 -10 -18 -5 -44 -12 -58 -14 -14 -2 -36 -7 -50 -11 -14 -3 -40
-7 -57 -7 -18 -1 -33 -4 -33 -7 0 -4 -10 -6 -22 -5 -13 1 -27 0 -32 -3 -6 -3
-35 -7 -65 -9 -98 -6 -506 -9 -516 -4 -5 3 -28 6 -50 7 -89 4 -289 25 -351 38
-12 2 -37 7 -55 10 -98 16 -154 27 -249 50 -110 25 -311 81 -345 95 -11 5 -40
15 -65 22 -25 7 -61 20 -80 28 -19 8 -42 16 -50 17 -8 2 -23 7 -35 12 -11 5
-67 29 -125 53 -141 59 -518 247 -540 269 -3 3 -34 23 -70 44 -135 81 -440
301 -481 348 -9 10 -19 18 -23 18 -4 0 -25 17 -47 37 -22 21 -51 47 -63 58
-12 11 -50 46 -84 79 l-63 58 -105 -148 c-57 -82 -113 -159 -123 -172 -11 -12
-17 -22 -15 -22 3 0 -10 -20 -28 -44 -18 -24 -40 -54 -48 -66 -20 -30 -87
-122 -98 -135 -4 -5 -17 -25 -27 -42 -11 -18 -23 -33 -27 -33 -4 0 -8 -5 -8
-11 0 -6 -17 -33 -37 -59 -21 -27 -76 -104 -123 -171 -47 -67 -91 -128 -97
-135 -7 -7 -13 -15 -13 -19 0 -3 -18 -30 -40 -60 -22 -30 -40 -59 -40 -65 0
-6 -4 -8 -10 -5 -5 3 -10 -1 -10 -9 0 -9 -4 -16 -10 -16 -5 0 -10 -6 -10 -13
0 -7 -8 -22 -18 -33 -10 -11 -27 -33 -38 -49 -10 -17 -22 -34 -26 -40 -60 -80
-78 -107 -78 -114 0 -5 -7 -12 -16 -15 -9 -4 -14 -9 -11 -12 3 -3 -2 -13 -10
-22 -25 -27 -223 -311 -223 -320 0 -4 26 -29 56 -57 31 -27 76 -68 99 -90 24
-22 58 -51 76 -65 18 -14 51 -42 73 -62 23 -21 44 -38 48 -38 4 0 13 -6 20
-13 7 -7 31 -26 53 -42 22 -17 45 -34 51 -40 7 -5 24 -19 40 -30 15 -11 33
-26 40 -32 7 -7 15 -13 19 -13 6 0 126 -79 135 -89 3 -3 14 -11 25 -18 227
-139 296 -179 380 -223 55 -29 116 -60 135 -70 54 -29 229 -110 285 -132 28
-11 61 -25 75 -31 14 -6 27 -11 30 -12 3 -1 14 -5 25 -10 96 -39 135 -53 135
-48 0 3 6 1 13 -4 9 -8 150 -59 187 -68 3 -1 12 -4 20 -7 8 -4 24 -8 35 -11
11 -3 65 -19 120 -35 55 -17 150 -42 210 -57 61 -15 119 -29 130 -32 30 -7
206 -44 235 -48 14 -2 36 -7 50 -10 14 -3 36 -8 50 -10 14 -2 41 -7 60 -10 19
-4 49 -8 65 -10 43 -6 94 -13 138 -21 21 -3 55 -8 75 -10 109 -10 156 -15 186
-18 320 -41 1045 -52 1386 -21 30 3 80 7 110 10 30 2 71 7 90 9 19 3 58 8 85
10 28 3 95 12 150 21 55 9 116 19 135 22 49 6 75 11 75 13 0 2 21 7 65 14 19
4 47 9 62 12 15 3 29 5 30 4 2 -1 16 3 31 9 15 6 41 13 57 16 39 7 199 50 230
63 14 5 28 10 33 10 13 1 171 53 204 68 17 8 33 14 36 14 3 0 18 5 34 12 15 6
31 12 35 12 3 1 10 4 14 8 4 5 13 8 20 8 38 0 526 247 554 280 3 3 25 18 50
32 40 23 55 34 106 77 7 5 14 7 18 4 3 -3 8 2 12 11 3 9 12 16 19 16 7 0 15 3
17 8 2 4 35 33 74 64 99 79 314 278 300 278 -2 0 17 22 42 49 64 66 81 88 75
95 -4 3 -1 6 5 6 21 0 168 213 254 365 57 102 138 270 138 286 0 5 4 17 10 27
23 43 81 198 78 210 -1 4 3 16 9 27 6 11 11 22 10 25 0 3 5 21 11 40 6 19 13
46 16 60 2 14 9 45 16 70 7 25 14 56 16 70 3 14 7 32 9 40 3 8 7 35 10 60 3
25 7 52 10 60 5 19 16 93 21 145 15 161 18 222 18 395 0 203 -10 346 -30 460
-4 25 -8 57 -9 73 0 15 -4 27 -9 27 -4 0 -6 7 -3 15 4 8 2 17 -4 20 -5 4 -9
12 -7 18 1 7 -1 21 -5 32 -6 21 -17 68 -21 95 -1 9 -5 20 -8 25 -6 11 -28 78
-32 98 -17 77 -178 406 -210 429 -6 4 -8 8 -3 8 14 0 -161 240 -175 240 -4 0
-8 5 -8 10 0 6 -10 21 -22 34 -125 129 -179 184 -199 201 -90 77 -159 133
-183 150 -16 11 -43 32 -61 48 -18 15 -35 27 -38 27 -3 0 -41 25 -86 55 -45
30 -85 55 -90 55 -5 0 -16 6 -23 13 -39 37 -557 291 -618 303 -3 0 -12 4 -20
7 -41 18 -156 59 -167 60 -7 0 -13 4 -13 9 0 4 -3 7 -7 6 -14 -3 -67 14 -82
26 -8 6 -17 10 -20 10 -6 -2 -7 -1 -62 16 -20 6 -45 12 -55 15 -20 4 -76 23
-109 36 -20 8 -116 36 -151 44 -34 7 -179 47 -194 53 -8 3 -22 6 -30 6 -8 1
-20 4 -26 8 -6 4 -31 10 -55 14 -24 4 -50 11 -56 17 -7 5 -13 7 -13 4 0 -4
-24 0 -90 17 -8 3 -37 10 -65 16 -27 6 -59 14 -70 16 -11 3 -33 7 -50 10 -16
3 -66 14 -110 25 -44 11 -95 21 -112 23 -18 3 -36 7 -41 10 -5 3 -24 8 -43 10
-19 3 -48 9 -66 15 -17 5 -34 7 -36 4 -3 -2 -14 0 -25 6 -18 10 -53 17 -122
26 -14 2 -26 4 -27 5 -2 2 -6 3 -10 4 -54 13 -76 18 -100 21 -15 2 -73 14
-128 25 -55 11 -111 23 -125 26 -14 2 -32 7 -40 9 -8 2 -30 7 -49 10 -19 3
-38 8 -42 11 -8 4 -75 19 -134 30 -16 3 -41 9 -55 14 -29 11 -108 32 -130 35
-8 1 -22 5 -30 9 -8 3 -55 19 -105 35 -124 40 -244 93 -339 149 -83 49 -236
189 -236 217 0 8 -4 15 -10 15 -5 0 -10 9 -10 19 0 11 -4 22 -9 25 -8 6 -23
55 -37 126 -8 44 -8 132 0 185 15 90 49 192 71 207 5 4 7 8 2 8 -24 0 95 141
170 201 59 48 230 132 291 144 12 2 26 7 32 10 5 3 26 8 46 10 20 3 41 8 48
12 6 4 20 8 31 10 11 1 36 4 55 7 45 7 133 17 190 22 56 5 255 5 335 -1 119
-7 257 -21 300 -29 17 -3 50 -7 75 -10 49 -6 67 -10 185 -32 44 -8 91 -18 105
-20 81 -15 315 -80 435 -119 77 -26 145 -48 150 -49 6 -2 24 -8 40 -15 17 -7
64 -26 105 -42 347 -139 738 -362 1033 -590 100 -77 88 -78 157 16 25 33 47
62 51 65 3 3 32 41 65 85 32 44 62 82 67 83 4 2 7 10 7 17 0 7 4 15 9 17 9 3
98 117 294 378 39 52 74 97 77 100 3 3 18 23 35 45 39 54 47 63 68 86 9 10 14
19 10 19 -5 0 -3 4 3 8 10 6 58 68 193 247 25 33 50 65 56 72 14 17 20 25 110
143 44 58 83 110 87 115 5 6 38 48 74 95 l65 85 -28 25 c-42 36 -120 100 -162
132 -20 15 -41 32 -47 37 -6 5 -35 26 -65 47 -30 21 -56 41 -59 45 -3 3 -68
47 -145 98 -194 126 -197 128 -227 142 -16 7 -28 15 -28 18 0 3 -25 17 -55 31
-30 14 -55 28 -55 33 0 4 -4 7 -9 7 -5 0 -37 16 -71 35 -34 19 -68 35 -75 35
-7 0 -15 4 -17 8 -2 7 -110 62 -128 66 -3 1 -30 13 -60 28 -103 50 -429 181
-475 191 -5 2 -16 6 -22 10 -7 5 -23 10 -35 13 -32 7 -33 8 -133 39 -101 32
-94 30 -155 45 -25 7 -52 14 -60 17 -8 3 -22 7 -30 9 -8 1 -31 7 -50 13 -38
11 -189 47 -230 54 -14 3 -36 8 -50 11 -14 4 -38 9 -55 11 -16 2 -31 4 -32 6
-2 1 -12 3 -23 4 -11 1 -21 3 -22 5 -2 1 -12 3 -23 5 -19 3 -77 12 -120 19
-28 5 -137 20 -157 22 -10 1 -19 2 -20 4 -2 1 -19 3 -38 5 -44 4 -145 14 -185
20 -29 4 -120 12 -240 21 -74 6 -731 15 -736 10z"/>
<path d="M407 10024 c-3 -3 -96 -5 -206 -5 l-201 0 2 -4741 3 -4742 600 -1
c330 0 605 1 610 2 7 2 10 1591 10 4741 l0 4737 -150 2 c-83 2 -159 3 -170 3
-11 1 -122 1 -247 0 -125 -1 -231 1 -236 4 -5 3 -12 3 -15 0z"/>
</g>
</svg>
